<svg width="163" height="150" viewBox="0 0 163 150" fill="none" xmlns="http://www.w3.org/2000/svg">
<path d="M162.842 54.6237C160.379 109.269 135.853 140.33 123.772 149.145C131.116 143.767 142.655 127.083 130.982 102.51C116.308 71.6156 70.1597 59.258 68.2289 35.5082C66.6842 16.5083 89.211 5.45082 100.668 2.29704C122.422 -3.10942 165.313 -0.213116 162.842 54.6237Z" fill="#C62424"/>
<path d="M19.1346 5.07251C30.0632 -2.78243 42.0448 0.519018 46.6695 3.15161C34.3164 18.7355 32.7172 33.9857 73.5981 68.8973C106.303 96.8266 99.3902 118.252 89.872 126.298C80.3539 134.345 79.2182 135.144 69.5447 140.56C59.8712 145.977 52.7459 148.513 42.8106 149.078C32.8753 149.642 23.5045 139.933 14.8111 120.852C7.85638 105.588 4.08543 89.3529 3.06929 83.1433C1.86498 74.4875 -0.317837 54.3083 0.585372 42.8376C1.71438 28.4991 5.47384 14.8912 19.1346 5.07251Z" fill="#C62424"/>
</svg>
