<svg width="15" height="54" viewBox="0 0 15 54" fill="none" xmlns="http://www.w3.org/2000/svg">
<path d="M14.4976 44.746C14.6404 47.2396 14.569 49.8045 12.3558 51.5857C10.4996 53.0819 8.42921 54.3644 5.85905 53.0819C2.93192 51.657 -0.13799 50.3033 0.00479704 46.3134C0.147584 43.606 0.433153 40.8986 1.0043 38.2625C3.07471 28.5016 4.217 18.7407 4.35978 8.76611C4.35978 6.62869 4.35979 4.49128 4.93093 2.4251C5.21651 1.42764 5.35929 0.0739452 6.64437 0.00269795C8.14363 -0.0685493 8.5006 1.28515 8.85757 2.4251C10.4282 7.19867 11.1422 12.1147 11.6419 17.0308C12.4272 25.5805 12.57 34.2726 14.6404 42.6798C14.6404 43.321 14.4976 44.0335 14.4976 44.746ZM6.85855 1.57014C5.64487 3.13758 5.93044 4.34878 5.85905 5.48874C5.64487 16.9595 4.28839 28.2879 2.0038 39.5449C1.57544 41.7536 1.43266 44.0335 1.50405 46.2422C1.57544 48.9496 4.28839 51.5145 7.3583 51.8707C9.64289 52.1557 12.0703 50.3745 12.9984 47.8096C13.5695 46.1709 13.3553 44.6035 13.284 42.8935C13.0574 40.0111 12.157 37.2183 11.6518 34.373C11.5748 33.9389 6.42868 34.557 2.98643 34.373C2.47797 34.3458 3.31825 33.9327 2.83882 33.8834C8.44097 32.7342 11.5918 33.7373 11.5724 33.4908C10.8585 26.2235 10.6424 17.5295 9.35732 10.3336C8.71478 7.48366 8.21502 4.63377 6.85855 1.57014Z" fill="#DADADA"/>
</svg>
