<svg width="17" height="49" viewBox="0 0 17 49" fill="none" xmlns="http://www.w3.org/2000/svg">
<path d="M0.0126387 39.8314C-0.201541 36.0553 2.36862 32.3504 3.01116 28.1468C4.08206 20.8084 4.36764 13.3987 5.08157 5.98894C5.22436 4.564 5.08157 3.13905 5.58132 1.78535C5.8669 1.00164 6.08108 0.0754205 7.08059 0.00417333C8.0801 -0.0670739 8.50845 0.787894 8.79402 1.50037C10.4361 5.20522 11.2214 9.12383 11.7925 13.1137C12.9348 20.8084 13.7202 28.5743 15.862 36.0553C16.2189 37.2665 16.5045 38.6202 16.5759 39.9026C16.7901 44.5337 12.7207 48.5948 8.08009 48.4523C3.43952 48.3098 -0.130148 44.8187 0.0126387 39.8314ZM3.86789 31.9942C1.86887 34.6303 1.29772 37.7652 1.29772 40.9713C1.22633 43.8212 2.36862 44.8187 5.01017 43.75C7.29476 42.8238 9.07959 43.18 11.2214 43.9637C14.0057 44.9612 14.9339 44.32 15.2194 41.2563C15.505 37.979 14.5055 34.9866 13.2204 32.0654C13.1657 31.699 13.1122 31.3322 13.0596 30.9652C13.0268 30.7363 12.9943 30.5073 12.9622 30.2783C11.6343 20.8062 10.8587 11.186 7.36616 2.07034C5.89801 11.394 5.55268 20.7798 4.17279 30.0534C4.15199 30.1932 6.35352 29.5153 8.3941 29.6551C10.7911 29.8192 13.0852 30.8011 13.0596 30.9652C13.0059 31.3084 3.92473 31.6514 3.86789 31.9942Z" fill="#DADADA"/>
</svg>
