<svg width="17" height="45" viewBox="0 0 17 45" fill="none" xmlns="http://www.w3.org/2000/svg">
<path d="M0.0102196 37.4761C-0.20396 42.6059 2.93735 44.387 8.22045 44.5295C13.218 44.7433 16.5021 41.3234 16.3593 36.3361C16.2879 33.7712 16.0023 31.2063 15.0028 28.7126C13.4322 24.6516 13.3608 20.163 12.5041 15.8881C11.6473 11.4708 10.7906 7.12473 9.86249 2.7074C9.64831 1.63869 9.64831 0.0712473 8.07766 0C6.507 0 6.07865 1.49619 5.65029 2.7074C4.508 5.91352 4.86496 9.26214 4.50799 12.5395C3.86545 18.9518 3.4371 25.4353 1.00972 31.5625C0.367183 33.415 0.0102196 35.4811 0.0102196 37.4761ZM7.50652 2.06617C7.79209 2.06617 8.07766 2.06617 8.43463 1.99492C9.43413 7.05348 10.5764 12.0408 11.4332 17.0993C12.002 20.4536 12.346 23.8452 13.1436 27.1659C13.3007 27.8202 6.07764 25.0576 4.06661 27.6765C9.12027 26.6454 12.9157 27.7848 13.1436 28.3818C14.3573 31.5879 15.574 37.5473 13.7891 41.1097C9.86249 39.3997 6.00725 39.186 2.36619 41.0384C1.1525 39.186 1.2953 37.761 1.43809 36.1936C1.72366 32.56 4.00824 29.4964 4.36521 26.0765C5.00775 20.2342 6.43562 14.4632 6.07865 8.47842C5.93587 6.26976 6.50701 4.06109 7.50652 2.06617Z" fill="#DADADA"/>
</svg>
