<svg width="25" height="37" viewBox="0 0 25 37" fill="none" xmlns="http://www.w3.org/2000/svg">
<path d="M10.3863 5.60579C10.5291 4.75082 10.6005 4.1096 10.6719 3.53962C11.0288 1.18846 12.8851 0.618485 14.7413 0.119754C16.5261 -0.378977 17.6684 0.760978 18.5965 2.04343C20.9525 5.3208 21.8093 9.09691 22.309 13.0155C22.8088 17.1478 23.0943 21.2089 24.308 25.1988C25.0219 27.4787 25.2361 29.8299 24.4508 32.181C23.5227 34.8172 21.8092 36.5271 18.9535 36.3134C14.7413 36.0284 10.4577 35.9571 6.24551 36.3134C2.89002 36.5271 1.31934 34.9597 0.46262 31.6823C0.0342603 30.0436 -0.2513 28.3337 0.319847 26.7662C2.24747 21.2089 1.96189 15.3667 2.74722 9.66689C3.03279 7.60071 3.46115 5.4633 4.10369 3.46837C4.53205 2.04343 5.31739 0.404743 7.17361 0.47599C8.81566 0.547238 8.74424 2.32842 9.24399 3.46837C9.45817 4.1096 9.31541 4.96457 10.3863 5.60579ZM6.95944 2.18592C5.246 2.7559 5.10319 4.18085 4.81762 5.39205C3.03279 12.9443 3.8895 20.924 1.53352 28.4049C1.46213 28.6187 1.53352 28.9036 1.53352 29.1174C1.53352 33.6772 2.96141 35.0309 7.53058 34.8884C10.2435 34.8172 12.8137 34.1759 15.598 34.6747C21.7378 35.7434 23.951 33.4635 23.3085 27.265C23.2371 26.4812 23.0229 25.6263 22.8087 24.8425C21.8092 21.7077 21.2381 18.5015 21.1667 15.1529C21.0953 11.7331 20.3814 8.31319 18.8107 5.24956C18.1682 3.89586 17.5256 2.47091 15.7408 2.18592C14.5985 3.53962 15.1697 5.03582 15.1697 6.38951C15.0983 8.38444 15.1697 10.3794 14.4557 12.3743C14.0988 13.3005 13.6704 14.1555 12.5995 14.298C11.5286 14.4405 10.8146 13.728 10.3149 12.873C9.1726 11.0206 8.60147 8.95441 8.45868 6.817C8.3159 5.03581 8.10174 3.46837 6.95944 2.18592Z" fill="#DADADA"/>
</svg>
