<svg width="12" height="47" viewBox="0 0 12 47" fill="none" xmlns="http://www.w3.org/2000/svg">
<path d="M0.0646436 7.80158C0.0646436 7.30285 -0.00674975 6.87537 0.0646436 6.37663C0.350217 4.52421 -0.86347 2.03055 1.49251 0.961838C4.27685 -0.320613 7.27538 -0.320613 10.1311 0.961838C11.7018 1.67431 11.4876 3.24176 11.6304 4.6667C11.9873 9.44027 10.7737 14.0713 10.2025 18.7737C9.27439 26.1834 9.77413 33.6643 9.55995 41.074C9.48856 42.9977 10.2739 45.9189 7.77512 46.1326C5.56192 46.3463 5.70472 43.354 5.41914 41.644C3.63431 32.0256 1.84949 22.336 0.207439 12.7176C-0.0781344 11.0789 0.136041 9.44026 0.136041 7.73033C0.136041 7.80158 0.136037 7.80158 0.0646436 7.80158ZM7.70374 44.2802C8.70325 43.2115 8.63185 42.0003 8.63185 40.8603C8.63185 37.4404 8.84602 33.9493 8.56045 30.6007C7.91791 22.2648 9.98832 14.1426 10.0597 5.87791C10.0597 2.2443 9.48856 1.67432 5.99028 1.60307C2.34922 1.53182 1.70669 2.2443 1.56391 5.87791C1.27833 13.4301 3.34873 20.6261 4.20545 27.9646C4.91938 33.5931 6.27587 38.9366 7.70374 44.2802Z" fill="#DADADA"/>
<path d="M10.4368 13.988C10.3395 14.0344 10.1263 14.1969 9.85337 14.3886C9.47133 14.6569 9.13475 14.8456 8.88447 14.9528C8.59042 15.0788 8.42972 15.188 8.16719 15.2456C7.91105 15.3017 7.65704 15.4014 7.28483 15.4573C6.90465 15.5143 6.63507 15.5304 6.33452 15.5687C6.06418 15.6032 5.82345 15.5687 5.48642 15.5248C5.03589 15.4661 4.5201 15.348 4.07305 15.2378C3.8258 15.1768 3.67742 14.9948 3.41548 14.8604C3.18439 14.7418 2.97653 14.6237 2.783 14.5172C2.58606 14.4089 2.39971 14.232 2.24538 14.0441C2.09104 13.8562 1.92823 13.7028 1.76697 13.5408C1.72597 13.5021 1.68329 13.4725 1.65237 13.4277C1.62144 13.3829 1.60355 13.3238 1.58512 13.2629" stroke="#DADADA" stroke-linecap="round"/>
</svg>
