<svg width="17" height="49" viewBox="0 0 17 49" fill="none" xmlns="http://www.w3.org/2000/svg">
<path d="M0.00251579 7.76512C0.0739098 9.90254 0.43087 12.3962 1.50177 14.6761C3.64357 19.4497 4.14332 24.5082 4.71447 29.4955C5.4284 35.2666 7.14184 40.8239 8.6411 46.3811C8.92668 47.4499 9.14086 48.946 10.7115 48.8035C11.9252 48.7323 12.1394 47.3786 12.4964 46.3811C12.9961 45.0274 12.9247 43.6025 12.9247 42.1775C12.9961 36.4778 12.7105 30.8492 13.5673 25.1495C13.9242 22.6558 14.2812 20.2334 15.2093 17.8822C16.5658 14.2486 16.7086 10.4725 16.8513 6.69641C17.0655 2.63532 11.4254 -1.06954 6.92767 0.284162C1.35899 2.20784 -0.0688782 2.77781 0.00251579 7.76512ZM10.4259 47.1649C8.6411 42.1063 7.35603 37.6177 6.5707 32.9867C5.42841 26.3607 5.14284 19.5922 2.3585 13.3224C1.64456 11.6837 1.50177 9.90254 1.50177 8.12135C1.43038 3.63278 2.57268 2.84906 6.78488 4.48775C7.6416 4.84399 8.14135 5.84144 9.56922 5.27146C15.1379 2.99155 15.8518 3.63278 15.4235 9.5463C15.3521 10.2588 15.2093 10.9712 15.1379 11.6837C14.9951 15.3886 13.2103 18.7372 12.5677 22.2996C11.4968 28.2843 12.068 34.3404 11.9252 40.3251C11.9966 42.3913 12.1394 44.6 10.4259 47.1649Z" fill="#DADADA"/>
<path d="M3.40784 17.4061C3.50511 17.4525 5.29908 19.3699 5.572 19.5616C5.95404 19.83 6.29062 20.0187 6.5409 20.1259C6.83495 20.2518 6.99565 20.3611 7.25817 20.4186C7.51432 20.4748 7.76833 20.5745 8.14054 20.6303C8.52072 20.6874 8.79029 20.7035 9.09084 20.7418C9.36119 20.7763 9.60191 20.7418 9.93895 20.6979C10.3895 20.6392 10.9053 20.521 11.3523 20.4108C11.5996 20.3499 11.7479 20.1679 12.0099 20.0335C12.241 19.9149 12.4488 19.7967 12.6424 19.6903C12.8393 19.5819 13.0257 19.4051 13.18 19.2172C13.3343 19.0293 13.4971 18.8759 13.6584 18.7138C13.6994 18.6751 13.7421 18.6456 13.773 18.6008C13.8039 18.556 13.8218 18.4969 13.8402 18.4359" stroke="#DADADA" stroke-linecap="round"/>
</svg>
