<svg width="12" height="46" viewBox="0 0 12 46" fill="none" xmlns="http://www.w3.org/2000/svg">
<path d="M11.6704 6.843C11.3848 9.55039 11.3134 12.7565 10.1711 15.7489C9.31439 18.0288 9.81415 20.4512 9.52857 22.8024C8.88603 28.2172 8.02931 33.5607 8.10071 38.9755C8.10071 39.7592 7.95792 40.6142 7.74374 41.3979C7.31538 43.0366 7.52954 45.6015 5.31635 45.5303C3.24594 45.459 3.24596 42.8229 3.10317 41.1842C2.46063 33.7745 2.03227 26.3647 1.60391 18.955C1.38973 14.4665 -0.252327 10.1916 0.033246 5.6318C0.318819 1.00073 1.17553 -0.067978 6.03028 0.00326926C10.6709 0.0745165 11.6704 1.07197 11.6704 5.6318C11.6704 5.91679 11.6704 6.13053 11.6704 6.843ZM2.96038 15.6777C3.38874 25.0823 3.46014 34.4869 4.88801 43.7491C5.31637 43.7491 5.67332 43.7491 6.10168 43.8203C7.02979 34.5582 7.9579 25.2248 8.88602 15.7489C6.38725 15.6777 4.74521 15.6777 2.96038 15.6777ZM10.0997 7.76922C10.1711 2.21193 7.67235 -0.210481 3.46014 1.99818C-0.109528 3.85061 2.17504 7.48423 1.74668 10.3341C1.46111 12.1153 2.10367 13.469 4.17407 13.9677C8.24349 14.8939 9.88553 13.6827 10.0283 9.5504C10.0997 8.98042 10.0997 8.33919 10.0997 7.76922Z" fill="#DADADA"/>
</svg>
