<svg width="26" height="44" viewBox="0 0 26 44" fill="none" xmlns="http://www.w3.org/2000/svg">
<path d="M12.7586 26.2602C14.1864 29.3238 14.7576 32.2449 15.0432 35.3086C15.2573 37.446 15.4715 39.5122 15.8999 41.6496C16.114 42.647 16.471 43.8582 17.7561 43.9295C19.0412 44.0007 19.5409 42.8608 20.0407 41.9346C22.1111 37.446 22.825 32.6724 23.1106 27.8276C23.3962 21.9853 22.7536 16.0006 24.9668 10.3008C25.6808 8.44835 25.3952 6.31094 24.6813 4.38726C23.539 1.10989 21.2544 -0.457553 17.8275 0.25492C14.115 1.03864 10.6168 1.03864 6.97569 0.183668C3.40603 -0.671299 0.550295 1.53737 0.193327 5.17098C-0.0922451 8.3771 -0.235023 11.5832 1.05006 14.6469C2.19235 17.4255 2.26373 20.3466 1.97816 23.339C1.40701 28.8963 1.12145 34.4536 2.19235 39.9396C2.47793 41.2221 2.6921 42.7895 4.19136 43.0033C5.83341 43.217 6.26177 41.6496 6.69013 40.4384C7.76103 37.3035 8.76053 34.1686 9.83143 31.0337C10.3312 29.395 10.6882 27.7564 12.7586 26.2602ZM13.6867 4.17352C14.9004 1.32363 17.3277 1.46613 19.3982 1.53737C21.54 1.67987 23.2534 2.96231 23.539 5.31347C23.8245 8.02086 23.8959 10.7283 22.825 13.3644C21.7541 16.0718 21.4685 18.8504 21.6113 21.7003C21.8969 27.2576 21.6113 32.8149 20.0407 38.2297C19.6123 39.7259 19.3267 41.2933 17.7561 42.2908C16.471 40.8659 16.7566 39.3697 16.7566 38.016C16.6138 34.8098 16.0427 31.675 15.1859 28.6113C14.7576 27.1151 14.4006 25.334 12.6158 25.049C10.474 24.764 9.97423 26.8302 9.40309 28.2551C8.47497 30.3925 7.90382 32.7437 7.11849 34.9523C6.40456 37.0185 6.04759 39.2272 4.54833 40.9371C3.04907 40.1534 3.26325 38.7997 3.19186 37.731C3.12046 34.8811 3.04906 32.0312 3.04906 29.2526C3.12045 23.4815 3.69161 17.7105 1.76399 12.0107C1.12145 10.1583 0.907274 8.09211 1.12145 6.02594C1.40703 3.53229 2.7635 1.67986 5.33366 1.46612C7.68964 1.25238 10.0456 1.82236 12.2588 3.31855C10.1884 5.74096 7.68963 1.96485 5.61923 4.24476C8.18939 5.24222 10.831 7.23715 12.6158 6.66717C14.9718 5.9547 17.3277 5.74095 20.1121 5.31347C18.1131 3.1048 15.8999 4.38726 13.6867 4.17352Z" fill="#DADADA"/>
</svg>
