<svg width="26" height="43" viewBox="0 0 26 43" fill="none" xmlns="http://www.w3.org/2000/svg">
<path d="M12.3072 26.5355C10.7365 28.1742 10.5224 30.1691 10.3082 32.164C10.094 34.3727 9.95121 36.6526 9.73703 38.8612C9.59425 39.93 9.45146 41.1412 8.16638 41.2836C6.95269 41.4261 6.23876 40.4287 5.73901 39.5025C3.59721 35.7264 2.45491 31.594 2.31212 27.3192C2.09794 21.7619 2.52631 16.2759 0.384505 10.9323C-0.186642 9.57863 0.0275369 7.86869 0.0989302 6.37249C0.31311 1.67017 3.31163 -0.823473 7.88081 0.245236C10.8079 0.886461 13.6637 1.02895 16.6622 0.316477C21.5883 -0.894727 24.801 1.59893 25.0866 6.65749C25.158 7.79744 25.158 9.07989 24.7296 10.1486C22.2309 17.0596 22.802 24.3268 21.7311 31.3803C21.3028 34.4439 20.3746 37.3651 18.9468 40.0724C18.447 41.0699 17.8045 42.4236 16.3052 41.9249C15.0915 41.5686 15.0915 40.2862 15.0201 39.2175C14.6632 35.7976 14.2348 32.449 13.8065 29.0291C13.6637 28.2454 13.7351 27.2479 12.3072 26.5355ZM11.9502 3.23762C9.09449 1.95517 6.66712 0.743967 3.95417 2.02642C1.09844 3.45136 1.31262 6.30125 1.74098 8.58116C3.24024 15.7771 2.74048 23.1156 4.02556 30.3116C4.38253 32.3777 5.02507 34.4439 5.73901 36.4388C6.16737 37.65 6.45294 39.1462 8.30917 39.645C9.09449 36.2251 8.16638 32.8052 9.30867 29.6704C10.0226 27.8179 9.95121 24.683 12.5928 24.8968C15.0915 25.1105 15.0201 28.0317 15.3057 30.0978C15.8055 33.4465 16.091 36.7951 16.5194 40.2862C18.0187 39.7875 18.3042 38.79 18.6612 37.7925C19.7321 35.0139 20.1605 32.0928 20.7316 29.1716C21.8739 23.0444 20.9458 16.6321 23.4446 10.7186C24.0871 9.22239 23.7301 7.22747 23.5873 5.44629C23.3732 3.30887 21.8739 2.02641 19.9463 1.59893C17.9473 1.17145 15.8769 1.38519 14.3062 3.30887C16.091 4.30633 18.447 2.52515 19.5893 5.09005C17.0905 5.09005 14.9487 5.66003 12.7356 6.44375C11.1649 7.01372 8.59474 4.94755 6.23876 3.95009C8.16638 2.59639 9.80842 4.66256 11.9502 3.23762Z" fill="#DADADA"/>
</svg>
