<svg width="14" height="49" viewBox="0 0 14 49" fill="none" xmlns="http://www.w3.org/2000/svg">
<path d="M13.8665 40.8972C13.8665 48.6632 13.8665 48.6632 6.51299 48.6632C5.94185 48.6632 5.29931 48.6632 4.72816 48.6632C0.944312 48.5919 0.373165 47.8795 0.087592 44.0321C-0.269375 38.3323 0.515952 32.775 1.51546 27.1465C2.80054 19.6656 2.65775 12.1133 3.65726 4.63238C3.87144 2.8512 3.72866 0.072558 5.94185 0.00131076C8.29784 -0.0699365 7.94086 2.77995 8.36922 4.48989C10.5824 12.6121 10.4396 21.0905 11.8675 29.3552C12.51 33.4163 14.2235 37.2636 13.8665 40.8972ZM6.37021 1.92499C4.87095 3.84866 4.79956 5.77234 4.65677 7.76726C4.08563 14.1083 3.80005 20.5205 2.87194 26.7903C2.66464 28.1763 2.40919 29.5564 2.15802 30.9374C1.54415 34.3126 0.955838 37.6936 1.15849 41.1822C1.44407 46.882 1.58686 47.167 7.29832 47.0957C12.2959 47.0245 12.0103 47.0245 12.4387 42.2509C12.8235 38.1705 11.6526 34.3489 10.7603 30.4809C10.3283 28.6081 9.96165 26.7245 9.86849 24.7954C9.7257 21.0193 9.29734 17.2431 8.72619 13.5383C8.08365 9.61969 7.15554 5.77234 6.37021 1.92499Z" fill="#DADADA"/>
<path d="M1.97607 32.4403C2.06408 32.3703 2.2401 32.1582 2.46993 31.9024C2.79166 31.5443 3.08838 31.2749 3.31821 31.1066C3.58824 30.9088 3.72459 30.7617 3.98092 30.6382C4.23104 30.5177 4.46683 30.3556 4.83742 30.2053C5.21595 30.0518 5.49112 29.9665 5.79226 29.8517C6.06314 29.7484 6.32243 29.7194 6.68428 29.6746C7.16797 29.6147 7.73588 29.5954 8.23026 29.5861C8.50369 29.5809 8.70821 29.7184 9.01731 29.7804C9.29 29.8351 9.53847 29.8954 9.76883 29.9482C10.0032 30.0019 10.2457 30.1245 10.4581 30.266C10.6704 30.4076 10.8819 30.5136 11.0943 30.6284C11.1475 30.6552 11.2 30.6727 11.2446 30.7079C11.2891 30.7432 11.3241 30.7957 11.3601 30.8497" stroke="#DADADA" stroke-linecap="round"/>
</svg>
