<svg width="16" height="53" viewBox="0 0 16 53" fill="none" xmlns="http://www.w3.org/2000/svg">
<path d="M15.8306 44.6898C15.7592 52.0283 15.7592 52.0283 8.26294 52.0283C0.909427 52.0283 0.909431 52.0283 0.124104 44.8323C-0.161469 41.9824 0.0527239 39.0613 0.695264 36.3539C3.33682 26.0943 3.47959 15.5497 4.76467 5.1476C4.97885 3.22392 4.69327 0.231534 6.83507 0.0177926C9.54802 -0.267196 9.61943 2.93893 9.9764 4.79136C10.9045 9.49368 11.6898 14.3385 11.9754 19.1833C12.3324 25.7381 14.7598 31.8653 15.3309 38.3488C15.5451 40.4862 15.6879 42.6237 15.8306 44.6898ZM13.9744 42.6949C13.9744 40.7 14.0458 38.7051 13.9744 36.7101C13.903 35.6414 13.6888 34.7152 12.5465 34.074C7.54901 31.2953 1.76616 34.4302 1.62337 40.0588C1.55198 42.0537 1.55198 44.0486 1.62337 46.0435C1.69476 50.1759 1.90893 50.3896 6.12114 50.4609C15.4737 50.5321 14.1886 51.0308 13.9744 42.6949ZM12.3324 32.2216C12.1896 22.8169 8.97688 4.57762 6.6209 1.72773C5.47861 12.3436 4.4077 22.3894 3.3368 32.7915C6.26393 31.7941 9.11967 30.7966 12.3324 32.2216Z" fill="#DADADA"/>
</svg>
