<svg width="17" height="45" viewBox="0 0 17 45" fill="none" xmlns="http://www.w3.org/2000/svg">
<path d="M16.3535 37.4761C16.5677 42.6059 13.4264 44.387 8.14332 44.5295C3.14578 44.7433 -0.138309 41.3234 0.00447771 36.3361C0.0758711 33.7712 0.36144 31.2063 1.36095 28.7126C2.9316 24.6516 3.00299 20.163 3.85971 15.8881C4.71643 11.4708 5.57316 7.12473 6.50128 2.7074C6.71546 1.63869 6.71546 0.0712473 8.28611 0C9.85676 0 10.2851 1.49619 10.7135 2.7074C11.8558 5.91352 11.4988 9.26214 11.8558 12.5395C12.4983 18.9518 12.9267 25.4353 15.354 31.5625C15.9966 33.415 16.3535 35.4811 16.3535 37.4761ZM8.85725 2.06617C8.57168 2.06617 8.28611 2.06617 7.92914 1.99492C6.92964 7.05348 5.78733 12.0408 4.93061 17.0993C4.36181 20.4536 4.01772 23.8452 3.22018 27.1659C3.06305 27.8202 10.2861 25.0576 12.2972 27.6765C7.2435 26.6454 3.44808 27.7848 3.22018 28.3818C2.00649 31.5879 0.789809 37.5473 2.57464 41.1097C6.50128 39.3997 10.3565 39.186 13.9976 41.0384C15.2113 39.186 15.0685 37.761 14.9257 36.1936C14.6401 32.56 12.3555 29.4964 11.9986 26.0765C11.356 20.2342 9.92815 14.4632 10.2851 8.47842C10.4279 6.26976 9.85676 4.06109 8.85725 2.06617Z" fill="#DADADA"/>
</svg>
