<svg width="25" height="37" viewBox="0 0 25 37" fill="none" xmlns="http://www.w3.org/2000/svg">
<path d="M14.7784 6.42895C15.1354 4.93276 15.2782 3.36532 15.8493 2.01162C16.706 -0.125797 18.1339 -0.268292 19.5618 1.65538C20.8469 3.43657 21.418 5.50274 21.7036 7.64015C22.4889 14.1949 22.7031 20.7496 24.3451 27.2332C25.773 33.4317 22.2033 36.994 15.7779 36.2103C13.2792 35.9253 10.9232 35.8541 8.42441 36.2103C2.42737 37.0653 0.0713934 34.8566 0 28.8006C0 26.4494 0.21418 24.0983 1.0709 21.8184C1.99901 19.396 2.21319 16.7598 2.1418 14.1237C2.07041 10.1338 3.35549 6.42895 5.28311 3.00908C6.28261 1.29915 7.42491 -0.410785 9.99507 0.0879455C12.6366 0.586676 13.8503 2.15411 13.8503 4.79026C13.8503 5.36024 14.0645 5.93022 14.1359 6.42895C14.4215 6.42895 14.6356 6.42895 14.7784 6.42895ZM9.56671 1.29915C6.35401 2.79534 5.49729 5.07525 4.78335 7.42641C2.64155 14.3374 2.71295 21.6046 1.28508 28.6581C0.356966 33.0042 2.78434 34.9991 7.35351 34.6429C10.2092 34.4291 12.9222 34.0729 15.8493 34.5004C21.6322 35.3553 23.3456 33.5029 22.9887 27.5894C22.9173 26.8769 22.9887 26.1644 22.7745 25.452C21.061 20.6072 20.7041 15.5486 20.7041 10.4188C20.7041 8.78011 20.3471 7.14142 19.9187 5.50274C19.5618 4.14904 19.2762 2.51035 17.3486 1.94037C16.4205 5.36024 16.2063 8.70886 14.8498 11.7012C14.3501 12.9125 13.4933 14.1237 11.9227 13.9099C10.4948 13.6962 10.352 12.3425 10.0665 11.2025C9.13835 8.21013 9.35253 5.07525 9.56671 1.29915Z" fill="#DADADA"/>
</svg>
