<svg width="16" height="54" viewBox="0 0 16 54" fill="none" xmlns="http://www.w3.org/2000/svg">
<path d="M7.66568 53.9685C0.097986 54.0397 -0.401767 53.1848 0.169379 45.5613C0.740526 37.3679 2.88234 29.5307 3.95324 21.4797C4.52439 16.9199 4.80996 12.2888 5.66668 7.80025C5.80946 6.87404 5.95225 5.87658 6.30921 5.02161C6.88036 3.81041 7.09454 1.88673 8.80798 1.95798C10.5928 2.02923 10.45 4.02415 10.7356 5.3066C11.164 7.37277 11.3068 9.51019 11.5209 11.6476C12.0921 18.2736 12.806 24.8284 13.6627 31.3831C14.0911 35.0167 15.3762 38.4366 15.4476 42.2127C15.5904 45.2051 15.0906 48.1262 15.162 51.0473C15.2334 52.8998 14.0911 53.8972 12.3062 53.9685C10.7356 54.0397 9.16494 53.9685 7.66568 53.9685ZM3.02511 34.803C1.09749 39.9328 1.74004 45.2051 1.66864 50.4774C1.66864 51.9736 2.81093 52.4723 4.09601 52.4723C6.59478 52.4723 9.09356 52.4723 11.5209 52.401C12.6632 52.401 13.9483 52.0448 13.9483 50.8336C14.0197 45.7038 15.3048 40.5027 12.806 35.5867C11.5923 24.9708 10.3073 14.4262 9.02217 3.02669C7.16595 5.52034 6.95175 7.58651 6.66618 9.65268C5.45249 17.9886 4.2388 26.3958 3.02511 34.803Z" fill="#DADADA"/>
<path d="M1.90405 37.9759C2.01815 37.9059 2.24636 37.6939 2.54433 37.438C2.96145 37.08 3.34613 36.8106 3.6441 36.6423C3.9942 36.4445 4.17096 36.2974 4.5033 36.1739C4.82757 36.0533 5.13327 35.8913 5.61373 35.741C6.10449 35.5874 6.46124 35.5021 6.85167 35.3873C7.20285 35.2841 7.53902 35.2551 8.00815 35.2103C8.63525 35.1504 9.37152 35.131 10.0125 35.1217C10.367 35.1166 10.6321 35.254 11.0329 35.316C11.3864 35.3708 11.7085 35.4311 12.0072 35.4838C12.3111 35.5375 12.6255 35.6601 12.9008 35.8017C13.1761 35.9432 13.4503 36.0493 13.7256 36.164C13.7947 36.1908 13.8627 36.2083 13.9205 36.2436C13.9782 36.2788 14.0236 36.3313 14.0703 36.3854" stroke="#DADADA" stroke-linecap="round"/>
</svg>
