<svg width="14" height="54" viewBox="0 0 14 54" fill="none" xmlns="http://www.w3.org/2000/svg">
<path d="M13.1429 44.2187C13.1429 45.2874 13.1429 45.5011 13.1429 45.7861C12.786 48.2798 14.3566 51.5571 11.7865 53.0533C8.93074 54.692 5.28967 53.7658 2.00558 53.4808C0.434927 53.3383 -0.0648174 52.0559 0.00657596 50.6309C0.149363 45.3586 -0.564562 40.0863 1.57724 34.8853C3.00511 31.3942 2.21976 27.4043 2.71951 23.6282C3.43345 18.2134 4.43297 12.8699 5.50387 7.59757C5.71805 6.52887 5.78945 4.96143 7.28871 4.96143C8.71657 4.96143 9.00215 6.38637 9.43051 7.45508C9.78747 8.31005 10.073 9.30751 10.073 10.2337C10.0016 17.1447 11.2867 23.9132 11.6437 30.7529C11.8579 35.5265 14.1425 40.0863 13.1429 44.2187ZM10.787 36.5952C10.2872 31.5367 10.0016 26.4781 9.14492 21.4908C8.35959 16.646 9.50188 11.5874 7.36008 6.95635C4.57574 16.5035 3.36207 26.1219 3.00511 35.954C0.292158 40.5138 1.00608 45.5011 1.07748 50.4172C1.07748 51.0584 1.36304 51.6996 2.00558 51.8421C4.93271 52.4833 7.85985 52.4833 10.787 51.8421C11.5009 51.6996 12.0007 50.9159 11.9293 50.2034C11.8579 45.5724 13.143 40.9413 10.787 36.5952Z" fill="#DADADA"/>
<path d="M1.8498 37.4844C1.94687 37.4277 2.15129 37.2428 2.41519 37.0224C2.78462 36.7137 3.11666 36.4893 3.36811 36.3554C3.66354 36.1981 3.81944 36.0719 4.09075 35.9861C4.35547 35.9024 4.61193 35.7756 5.00014 35.6796C5.39667 35.5815 5.68119 35.5362 5.9956 35.4655C6.27841 35.4018 6.5392 35.41 6.90374 35.4172C7.39103 35.4267 7.95591 35.4884 8.44659 35.5496C8.71796 35.5834 8.90084 35.7485 9.19795 35.8539C9.46008 35.9469 9.69743 36.042 9.91794 36.127C10.1423 36.2135 10.3649 36.3694 10.5549 36.5397C10.7449 36.7101 10.9392 36.8451 11.133 36.989C11.182 37.0231 11.2314 37.0478 11.2705 37.0891C11.3096 37.1303 11.3367 37.1873 11.3647 37.2459" stroke="#DADADA" stroke-linecap="round"/>
</svg>
