<svg width="17" height="45" viewBox="0 0 17 45" fill="none" xmlns="http://www.w3.org/2000/svg">
<path d="M0 37.0142C0.285573 35.3042 0.285569 33.3805 0.999503 31.8131C4.56917 23.8334 4.21221 15.2837 5.06893 6.87656C5.21172 5.30912 5.28312 3.81293 5.85426 2.38798C6.28262 1.17678 6.85376 -0.248166 8.4958 0.0368234C9.92367 0.250565 9.99508 1.67551 10.2093 2.88671C11.4229 9.86895 13.065 16.7087 13.8503 23.7622C14.0645 26.0421 14.707 28.1795 15.6351 30.2457C16.4205 32.0981 16.706 34.093 16.7774 36.0879C16.8488 39.4366 15.7065 42.0015 12.4938 43.4977C8.78138 45.2076 5.3545 44.8513 2.0704 42.5002C0.142782 41.2177 0.0713934 39.1516 0 37.0142ZM8.35303 1.74676C6.78238 2.53048 6.85376 3.52794 6.78237 4.45415C6.56819 7.01905 6.4968 9.6552 6.06844 12.2201C5.06893 18.8461 5.35451 25.6146 2.35599 31.9556C1.07091 34.663 1.14231 37.7979 2.35599 41.0752C5.64009 39.6503 8.78138 38.7241 12.0655 40.3628C14.2073 41.4315 14.8498 40.0778 14.9926 38.2966C15.2068 35.3755 15.2782 32.4543 13.9931 29.6044C12.9222 27.2533 12.3511 24.6884 12.1369 22.0522C11.6371 15.2837 9.85229 8.72899 8.35303 1.74676Z" fill="#DADADA"/>
</svg>
