<svg width="24" height="34" viewBox="0 0 24 34" fill="none" xmlns="http://www.w3.org/2000/svg">
<path d="M8.43422 3.85482C10.3618 0.0787166 10.7902 0.0787162 13.8601 4.4248C14.0743 4.06856 14.2171 3.85482 14.3599 3.56983C14.7883 2.14489 14.7883 0.149964 16.7159 0.00746976C18.8577 -0.135025 19.5716 1.78865 20.3569 3.42734C20.4997 3.71233 20.6425 4.06856 20.7139 4.4248C22.2131 12.0483 22.7129 19.743 23.7124 27.3664C24.355 31.9262 21.4278 34.1349 16.7873 33.6362C13.4318 33.2799 10.2191 33.4224 6.93498 33.6362C2.22302 33.9924 0.224021 31.855 0.0812346 27.1527C0.0812346 25.8702 -0.204348 24.374 0.295406 23.3053C2.72278 17.8193 1.79466 11.977 2.29441 6.27723C2.3658 5.56476 2.3658 4.85228 2.65138 4.21106C3.29392 2.57237 3.65089 0.506201 5.86408 0.434954C7.72031 0.506201 7.72029 2.64362 8.43422 3.85482ZM6.00687 2.00239C3.43671 3.64108 3.29394 5.92099 3.29394 8.12966C3.36533 13.1882 3.36532 18.318 1.72327 23.1628C1.29491 24.5165 1.15212 25.9415 1.22351 27.3664C1.50908 30.8575 2.93697 32.2112 6.50664 32.14C9.71934 32.0687 12.7892 31.4988 16.0733 31.9975C21.0709 32.71 22.7129 31.2138 22.2845 26.1552C21.7134 19.458 19.9286 12.9745 19.7858 6.20598C19.7144 4.49605 19.0718 2.50112 17.0014 1.64616C15.5022 2.64362 15.5736 4.06856 15.4308 5.49351C15.288 6.9897 15.2166 8.55714 14.931 10.0533C14.5741 11.8345 14.0029 13.8294 11.9325 13.9719C9.71932 14.1857 9.29098 12.0483 8.64844 10.4096C7.50614 7.84467 7.72031 4.85228 6.00687 2.00239Z" fill="#DADADA"/>
</svg>
