<svg width="12" height="46" viewBox="0 0 12 46" fill="none" xmlns="http://www.w3.org/2000/svg">
<path d="M11.6522 7.078C11.8664 11.2103 10.5813 15.6277 10.0102 20.045C9.22484 26.5997 9.86736 33.2257 8.72507 39.7805C8.65368 40.1367 8.72509 40.493 8.6537 40.8492C8.36812 42.7729 8.5823 45.6228 6.08353 45.5515C3.94173 45.4803 4.37009 42.6304 4.01313 40.8492C2.29969 31.7295 3.15641 22.2537 0.800428 13.134C0.0864943 10.3554 0.157883 7.29174 0.0150966 4.3706C-0.12769 2.23319 0.729026 0.736993 3.1564 0.452004C3.37058 0.452004 3.58476 0.380759 3.87033 0.309512C9.79598 -0.759197 11.7236 0.808242 11.6522 7.078ZM2.94223 14.9865C3.72755 13.2765 5.22681 14.3452 6.3691 14.2027C7.93975 13.989 9.58179 13.9177 9.79597 11.9228C10.0815 9.57166 10.4385 7.22049 10.5099 4.86933C10.6527 1.66321 8.22533 1.73446 6.08353 1.73446C3.94173 1.73446 1.58574 1.73446 1.65713 4.94058C1.65713 8.2892 1.79993 11.7091 2.94223 14.9865C4.15591 24.5336 4.1559 34.2945 6.58327 43.7703C8.22532 34.437 7.86836 25.0323 9.15344 15.3427C6.58328 15.7702 4.65567 15.9839 2.94223 14.9865Z" fill="#DADADA"/>
</svg>
