<svg width="17" height="48" viewBox="0 0 17 48" fill="none" xmlns="http://www.w3.org/2000/svg">
<path d="M16.1729 7.53873C15.8159 10.3174 15.3875 13.381 14.2452 16.2309C12.8888 19.8645 12.4604 23.5694 12.6032 27.3455C12.8174 32.9028 12.032 38.3888 11.9606 43.9461C11.9606 45.2285 12.032 46.8672 10.4614 47.1522C8.81935 47.4372 8.53377 45.7273 7.89123 44.6586C6.82033 43.0199 6.82033 41.0962 6.46336 39.2438C5.10689 32.7603 4.10737 26.2768 3.03647 19.722C2.60811 16.9434 1.18024 14.3785 0.5377 11.6711C-0.890167 5.8288 0.466315 2.83642 5.32106 0.556503C9.74745 -1.50967 16.2443 2.48018 16.1729 7.53873ZM14.6022 8.03747C14.6736 4.40386 13.9597 3.62014 10.8184 4.76009C8.89074 5.47257 7.46286 5.18758 5.67803 4.6176C2.25115 3.54889 1.32303 4.33261 1.25163 7.96622C1.18024 10.2461 1.96558 12.3835 2.60812 14.521C2.8937 15.4472 3.46483 16.1597 4.46433 16.5159C6.89171 17.4421 9.39049 17.5133 11.8179 16.8009C13.8169 16.1596 13.3171 13.8085 13.9597 12.2411C14.5308 10.8874 14.6022 9.46242 14.6022 8.03747ZM4.46433 18.4396C5.67802 27.6305 6.74892 36.3226 9.46187 44.7298C10.8183 42.0937 11.9606 23.9968 11.4609 18.4396C9.39049 19.0808 7.24867 18.7958 4.46433 18.4396Z" fill="#DADADA"/>
</svg>
