<svg width="18" height="49" viewBox="0 0 18 49" fill="none" xmlns="http://www.w3.org/2000/svg">
<path d="M17.2681 7.91703C17.0539 11.1232 16.4113 14.828 15.1263 18.4616C14.1981 21.0978 13.7698 23.6627 13.6984 26.4413C13.5556 31.9986 13.27 37.5559 13.0559 43.1132C13.0559 43.8256 12.9845 44.6094 12.6989 45.1793C12.1991 46.3905 12.6989 48.4567 10.7713 48.528C8.98645 48.528 8.84366 46.6043 8.48669 45.3218C6.48768 38.4109 4.56005 31.4286 4.13169 24.1614C3.9889 21.6677 3.34637 19.2453 2.41825 16.9654C1.41875 14.4005 0.990392 11.7644 0.347851 9.12823C-1.2942 2.57348 3.1322 0.649802 8.27252 0.079824C13.627 -0.561401 17.1967 2.71598 17.2681 7.91703ZM10.6285 46.6755C12.0564 43.8969 11.985 41.4745 11.985 39.0521C11.9136 30.2887 12.3419 21.5965 15.0549 13.1893C15.5546 11.6219 15.626 9.91195 15.6974 8.27326C15.8402 3.21471 14.8407 2.50223 10.2001 4.49716C9.48619 4.78215 9.05783 5.42337 7.98693 4.92463C2.27546 2.21724 0.919003 2.57348 1.84712 9.98319C1.91851 10.3394 1.98989 10.6957 2.06129 11.0519C2.63243 15.5405 5.1312 19.4591 5.55956 24.0189C5.91652 28.0087 6.55906 31.9986 7.34439 35.9172C8.05832 39.4083 8.84366 42.8994 10.6285 46.6755Z" fill="#DADADA"/>
</svg>
