<svg width="26" height="44" viewBox="0 0 26 44" fill="none" xmlns="http://www.w3.org/2000/svg">
<path d="M12.6218 26.2602C11.1939 29.3238 10.6228 32.2449 10.3372 35.3086C10.123 37.446 9.90887 39.5122 9.48051 41.6496C9.26633 42.647 8.90936 43.8582 7.62428 43.9295C6.3392 44.0007 5.83943 42.8608 5.33968 41.9346C3.26927 37.446 2.55535 32.6724 2.26977 27.8276C1.9842 21.9853 2.62674 16.0006 0.413544 10.3008C-0.30039 8.44835 -0.0148209 6.31094 0.699113 4.38726C1.84141 1.10989 4.126 -0.457553 7.55288 0.25492C11.2653 1.03864 14.7636 1.03864 18.4047 0.183668C21.9743 -0.671299 24.8301 1.53737 25.187 5.17098C25.4726 8.3771 25.6154 11.5832 24.3303 14.6469C23.188 17.4255 23.1166 20.3466 23.4022 23.339C23.9734 28.8963 24.2589 34.4536 23.188 39.9396C22.9024 41.2221 22.6883 42.7895 21.189 43.0033C19.547 43.217 19.1186 41.6496 18.6902 40.4384C17.6193 37.3035 16.6198 34.1686 15.5489 31.0337C15.0492 29.395 14.6922 27.7564 12.6218 26.2602ZM11.6937 4.17352C10.48 1.32363 8.05262 1.46613 5.98222 1.53737C3.84042 1.67987 2.12698 2.96231 1.84141 5.31347C1.55584 8.02086 1.48444 10.7283 2.55534 13.3644C3.62624 16.0718 3.91183 18.8504 3.76904 21.7003C3.48347 27.2576 3.76903 32.8149 5.33968 38.2297C5.76804 39.7259 6.05362 41.2933 7.62428 42.2908C8.90936 40.8659 8.62378 39.3697 8.62378 38.016C8.76657 34.8098 9.33772 31.675 10.1944 28.6113C10.6228 27.1151 10.9797 25.334 12.7646 25.049C14.9064 24.764 15.4061 26.8302 15.9773 28.2551C16.9054 30.3925 17.4766 32.7437 18.2619 34.9523C18.9758 37.0185 19.3328 39.2272 20.832 40.9371C22.3313 40.1534 22.1171 38.7997 22.1885 37.731C22.2599 34.8811 22.3313 32.0312 22.3313 29.2526C22.2599 23.4815 21.6888 17.7105 23.6164 12.0107C24.2589 10.1583 24.4731 8.09211 24.2589 6.02594C23.9733 3.53229 22.6169 1.67986 20.0467 1.46612C17.6907 1.25238 15.3347 1.82236 13.1216 3.31855C15.192 5.74096 17.6907 1.96485 19.7611 4.24476C17.191 5.24222 14.5494 7.23715 12.7646 6.66717C10.4086 5.9547 8.05262 5.74095 5.26828 5.31347C7.2673 3.1048 9.48049 4.38726 11.6937 4.17352Z" fill="#DADADA"/>
</svg>
