<svg width="12" height="47" viewBox="0 0 12 47" fill="none" xmlns="http://www.w3.org/2000/svg">
<path d="M1.48733 32.7295C1.98708 23.9661 -0.226111 14.704 0.0594622 5.37061C0.130856 3.58943 -0.654467 1.38075 1.91569 0.597034C4.84282 -0.329181 7.84134 -0.257929 10.4829 1.38076C11.6966 2.16448 11.411 3.66067 11.3396 4.94312C11.2682 9.78793 10.5543 14.5615 9.69757 19.3351C8.2697 27.2435 7.41298 35.2232 5.41396 42.9892C5.27118 43.5591 5.19978 44.1291 5.057 44.6991C4.84282 45.4828 4.55725 46.409 3.48635 46.2665C2.70102 46.1953 2.34405 45.4828 2.12987 44.7703C1.34454 42.8467 1.55873 40.7805 1.55873 38.7856C1.41594 37.0756 1.48733 35.2232 1.48733 32.7295ZM3.41495 43.9866C5.62814 36.8619 6.84183 29.5234 7.76995 22.185C8.48388 16.5564 10.3401 11.1416 9.98313 5.37061C9.91174 4.23065 10.1973 2.8057 8.91223 2.23572C6.77043 1.23826 4.48585 1.30951 2.34405 2.16448C0.48782 2.87695 1.05896 4.80063 1.05896 6.22557C1.20175 13.2791 2.34405 20.3325 2.77241 27.386C3.12938 32.9433 2.62962 38.4293 3.41495 43.9866Z" fill="#DADADA"/>
<path d="M9.80321 11.8098C9.70594 11.8562 9.49274 12.0186 9.21983 12.2103C8.83778 12.4787 8.5012 12.6674 8.25093 12.7746C7.95687 12.9006 7.79617 13.0098 7.53365 13.0673C7.2775 13.1235 7.02349 13.2232 6.65128 13.2791C6.2711 13.3361 6.00153 13.3522 5.70098 13.3905C5.43063 13.425 5.18991 13.3905 4.85287 13.3466C4.40234 13.2879 3.88656 13.1697 3.43951 13.0595C3.19226 12.9986 3.04388 12.8166 2.78194 12.6822C2.55084 12.5636 2.34299 12.4455 2.14945 12.339C1.95252 12.2307 1.76617 12.0538 1.61183 11.8659C1.4575 11.678 1.29468 11.5246 1.13342 11.3625C1.09243 11.3238 1.04975 11.2943 1.01882 11.2495C0.987892 11.2047 0.970005 11.1456 0.951577 11.0847" stroke="#DADADA" stroke-linecap="round"/>
</svg>
