<svg width="15" height="50" viewBox="0 0 15 50" fill="none" xmlns="http://www.w3.org/2000/svg">
<path d="M1.45908 44.1507C2.10162 40.9446 1.95882 37.0972 2.38718 33.3924C3.10111 27.1939 2.45857 21.1378 0.959314 15.1531C0.530953 13.5856 0.245382 11.8757 0.102596 10.237C-0.397158 4.25223 0.816533 3.18353 6.24243 0.404884C8.81259 -0.948814 12.525 1.25985 13.8815 4.53722C14.7382 6.67464 14.881 9.0258 14.1671 11.1632C11.24 20.4254 10.5974 30.1862 8.02726 39.5196C7.31333 42.0133 6.4566 44.5069 5.4571 46.8581C5.02874 47.8556 4.60038 49.423 3.17251 49.2093C1.53046 48.9955 1.67325 47.3568 1.53046 46.0744C1.38768 45.6469 1.45908 45.1482 1.45908 44.1507ZM3.3153 46.7869C5.17152 45.1482 5.59988 42.9395 6.17103 40.8733C9.02676 31.3974 9.59791 21.3516 12.5964 11.8757C13.0962 10.3795 12.882 8.59832 12.8106 6.95964C12.6678 4.25224 10.3832 1.75858 8.09865 1.54484C6.09963 1.40234 1.88743 4.39473 1.67325 6.3184C1.38767 9.38204 0.887927 12.8019 2.67276 15.2956C4.02923 17.148 7.02775 16.4355 9.38373 16.3643C9.6693 16.3643 10.0263 16.5068 10.6688 16.7205C8.45562 19.0717 5.81407 17.5042 3.17251 18.003C4.74317 27.6213 3.2439 37.1685 3.3153 46.7869Z" fill="#DADADA"/>
</svg>
