<svg width="16" height="48" viewBox="0 0 16 48" fill="none" xmlns="http://www.w3.org/2000/svg">
<path d="M15.5769 9.03316C16.0052 13.023 13.0067 17.0129 12.4356 21.6439C11.6502 27.4862 10.6507 33.3285 9.57983 39.0995C9.22287 40.9519 8.72312 42.8044 8.00918 44.5143C7.50943 45.7968 7.08107 47.5779 5.22485 47.1504C3.65419 46.7942 3.79698 45.1555 3.72558 43.8731C3.65419 41.5219 3.58279 39.1708 3.65419 36.7484C3.93976 28.7687 3.36861 20.9315 0.655667 13.3793C-0.272447 10.7431 0.013129 7.96446 0.155916 5.25707C0.298702 2.47842 5.36763 -0.442716 8.79451 0.056015C12.9353 0.69724 15.7911 4.1171 15.5769 9.03316ZM11.6502 18.8653C8.86591 18.3666 6.22435 20.0052 4.15395 17.6541C5.51042 16.9416 6.72411 17.3691 7.8664 17.2978C11.793 17.0841 12.7925 16.3004 13.7207 12.453C14.0062 11.3131 14.2204 10.1731 14.3632 8.96192C14.6488 4.82958 13.5779 3.61838 9.43705 3.26214C2.01214 2.62092 0.0845245 4.40209 1.79796 11.5268C3.5828 18.8653 5.36763 26.1325 4.79648 33.8272C4.5823 36.1784 4.72509 38.5295 4.79648 40.8807C4.86788 42.4481 4.93927 44.0156 6.08157 45.3693C9.43705 36.8196 9.65123 27.6999 11.6502 18.8653Z" fill="#DADADA"/>
</svg>
