<svg width="26" height="44" viewBox="0 0 26 44" fill="none" xmlns="http://www.w3.org/2000/svg">
<path d="M12.7535 26.6627C10.3975 28.2301 10.0406 30.795 9.25525 33.075C8.39853 35.4974 7.75599 38.0623 6.82787 40.4847C6.39951 41.6246 6.04254 43.2633 4.3291 42.9783C2.75845 42.6933 2.68706 41.1259 2.40149 39.9147C1.40198 35.7111 1.1878 31.365 1.90173 27.2327C2.75845 21.8891 2.11591 16.9018 0.688044 11.8433C-0.0258892 9.34962 -0.382855 6.78472 0.616652 4.21982C1.83034 1.08494 4.25771 -0.553751 7.54181 0.229969C10.9687 1.08494 14.2528 1.08494 17.6797 0.229969C21.2493 -0.624999 23.6053 0.942439 24.8904 4.29106C25.7471 6.57097 25.8185 8.99338 25.0332 11.2733C23.5339 15.6194 23.3911 20.0367 23.4625 24.5253C23.5339 30.0826 22.9628 35.6399 20.8924 40.8409C20.3212 42.1946 19.9643 44.1895 18.0366 43.9758C16.109 43.7621 16.2518 41.7671 16.0376 40.2709C15.5379 36.7798 15.0381 33.2887 14.467 29.7976C14.2528 28.6576 13.8958 27.5889 12.7535 26.6627ZM4.61468 40.9834C5.82837 40.6272 5.75697 39.5585 6.11394 38.7035C7.32763 35.1411 8.54132 31.5075 9.8264 28.0164C10.3261 26.7339 10.8973 25.0953 12.6107 25.0953C14.467 25.0953 14.9667 26.9477 15.3951 28.3726C15.8948 29.7976 15.9662 31.365 16.3232 32.8612C17.1085 35.9248 16.6088 39.3447 18.3222 42.5508C20.107 40.1997 20.5354 37.706 21.0352 35.3549C22.8914 26.5915 21.1779 17.4718 23.8909 8.77964C24.0337 8.20966 23.9623 7.56844 23.9623 6.99846C23.7481 2.65237 21.7491 0.942443 17.4655 1.86866C14.2528 2.58113 11.2543 2.79487 8.04156 1.86866C4.18632 0.799949 1.61616 2.86612 1.33059 6.92722C1.11641 9.56336 1.97313 12.057 2.68706 14.5507C3.54378 17.5431 3.90074 20.4642 3.61517 23.5991C3.18681 28.0876 3.11542 32.5762 3.47239 37.0648C3.47239 38.4897 3.2582 39.9859 4.61468 40.9834Z" fill="#DADADA"/>
</svg>
