<svg width="25" height="34" viewBox="0 0 25 34" fill="none" xmlns="http://www.w3.org/2000/svg">
<path d="M9.7295 5.44397C13.1564 0.385418 13.1564 0.385417 15.5124 3.3778C16.4405 2.45159 16.3691 0.314171 18.2253 0.456666C20.2243 0.59916 20.6527 2.45159 21.2952 3.94778C22.3661 6.79767 22.4375 9.71881 22.2947 12.7112C22.1519 15.7748 22.2947 18.8385 23.437 21.7596C23.9368 23.1845 24.2223 24.752 24.2937 26.2482C24.5079 31.3067 21.7236 34.0854 16.726 33.6579C13.6561 33.3729 10.6576 33.3017 7.5877 33.6579C2.51877 34.2991 -0.26557 31.3067 0.0200035 26.3194C0.0200035 25.9632 0.0200034 25.607 0.16279 25.2507C2.1618 19.2659 2.01902 12.9249 2.80434 6.72642C3.01852 4.94524 3.66106 3.30656 4.66057 1.81036C5.30311 0.812902 6.15983 -0.18456 7.5163 0.0291819C8.94417 0.242924 9.22974 1.52537 9.44392 2.73658C9.51532 3.44905 9.58671 4.16152 9.7295 5.44397ZM7.15934 1.38288C5.30311 2.38034 4.51778 3.87653 4.375 5.51522C3.80385 12.6399 2.51877 19.6934 1.66205 26.8182C1.1623 31.093 3.01852 32.5179 7.44491 32.1617C10.1579 31.948 12.7994 31.663 15.5124 32.0192C21.2952 32.8742 23.0801 30.9505 22.6517 25.1082C22.5803 24.3245 22.5803 23.3983 22.2233 22.6858C20.5813 18.7672 20.3671 14.7061 20.5813 10.5025C20.6527 8.72135 20.5099 6.94017 20.1529 5.23023C19.8674 3.94778 19.5818 2.38034 17.7256 2.23785C16.6547 3.87653 16.5833 5.72896 16.0835 7.36765C15.5838 9.07759 15.5124 10.8588 14.4415 12.355C12.7994 14.7061 10.8004 14.5636 9.58671 11.9987C9.22974 11.1438 9.15835 10.1463 8.87278 9.29133C8.15884 6.94017 8.87278 4.16152 7.15934 1.38288Z" fill="#DADADA"/>
</svg>
