<svg width="15" height="54" viewBox="0 0 15 54" fill="none" xmlns="http://www.w3.org/2000/svg">
<path d="M14.7249 44.5521C14.7249 49.5394 12.2262 52.6743 7.44283 53.5292C4.23013 54.0992 0.446265 50.5368 0.0892982 46.832C-0.339062 42.6996 0.874629 38.8523 1.58856 34.9337C3.15922 26.3128 2.51667 17.4781 4.3729 8.92845C4.87265 6.64853 5.22962 4.29737 6.15773 2.08871C6.58609 1.16249 6.80029 -0.191204 8.15676 0.0225374C9.44184 0.236279 9.51322 1.44748 9.7274 2.51619C9.94158 3.79864 10.2272 5.08109 10.2986 6.36354C10.6555 17.8344 11.5122 29.2339 14.1538 40.4197C14.5822 41.7022 14.5821 43.1984 14.7249 44.5521ZM8.51373 2.2312C8.22815 2.15996 7.94257 2.08871 7.657 2.01746C5.87216 6.50604 5.15823 11.2796 4.72987 16.0532C4.01593 24.8878 3.80177 33.7937 1.37439 42.4147C0.946032 43.9109 0.946023 45.4783 1.2316 46.9745C1.73135 49.6819 4.58708 52.1043 6.94306 51.9618C10.013 51.7481 13.0115 48.9694 13.0115 46.1908C13.0115 43.8396 13.0829 41.4172 12.5831 39.1373C10.7983 30.4451 9.44184 21.6817 9.22766 12.847C9.22766 9.28468 8.7993 5.79357 8.51373 2.2312Z" fill="#DADADA"/>
<path d="M2.53219 37.1332C2.62802 37.0744 2.82839 36.8851 3.08748 36.659C3.45016 36.3424 3.77728 36.111 4.02578 35.9717C4.31776 35.808 4.47089 35.6785 4.74029 35.5868C5.00315 35.4975 5.25681 35.3651 5.64286 35.2607C6.03718 35.1541 6.32065 35.1027 6.63346 35.0252C6.91484 34.9555 7.17574 34.958 7.54035 34.9573C8.02774 34.9564 8.59381 35.0058 9.08569 35.0564C9.35774 35.0844 9.54413 35.2456 9.84345 35.3445C10.1075 35.4318 10.3469 35.5218 10.5692 35.602C10.7954 35.6836 11.0212 35.8347 11.2149 36.0009C11.4085 36.1671 11.6057 36.2979 11.8026 36.4375C11.8522 36.4705 11.9022 36.4943 11.9422 36.5346C11.9821 36.575 12.0105 36.6314 12.0397 36.6894" stroke="#DADADA" stroke-linecap="round"/>
</svg>
