<svg width="15" height="50" viewBox="0 0 15 50" fill="none" xmlns="http://www.w3.org/2000/svg">
<path d="M14.2765 8.60472C13.5626 11.5259 13.9195 14.732 12.6345 17.5819C12.1347 18.7218 12.0633 19.8618 12.0633 21.073C12.0633 28.7677 11.4922 36.3912 12.7059 44.0146C12.7773 44.2284 12.7772 44.5133 12.7772 44.7271C12.7772 46.3658 13.277 48.5744 11.4208 49.1444C9.27896 49.7856 9.0648 47.2207 8.42226 45.867C6.49464 41.8059 5.49513 37.3886 4.85259 32.9713C3.7103 25.0628 1.28292 17.3681 0.140625 9.4597C-0.216342 6.82355 -0.00217518 4.18739 2.06823 2.19247C3.85307 0.553781 5.85208 -0.799914 8.49363 0.553784C11.7063 2.26372 14.7763 4.11614 14.2765 8.60472ZM11.278 17.2969C12.6345 14.3045 12.7059 11.0984 12.7059 7.9635C12.7059 5.04236 9.13618 1.48 6.42323 1.55125C3.71028 1.69374 1.49709 4.47238 1.49709 7.89225C1.49709 8.81846 1.56848 9.74468 1.71127 10.7421C2.49659 16.3707 2.92497 16.7269 8.70783 16.4419C9.63594 16.3707 10.7782 15.8007 11.278 17.2969C8.92201 18.2231 6.42323 18.1519 3.5675 18.0094C5.35233 27.984 6.28044 37.7448 10.6354 46.722C11.4208 44.1571 10.9924 41.6635 10.8496 39.1698C10.2785 31.9026 9.92152 24.5641 11.278 17.2969Z" fill="#DADADA"/>
</svg>
