<svg width="27" height="40" viewBox="0 0 27 40" fill="none" xmlns="http://www.w3.org/2000/svg">
<path d="M12.5936 25.8138C11.0943 28.8062 11.3799 31.8698 10.9515 34.8622C10.6659 36.7146 11.1657 39.2795 8.95247 39.707C6.52509 40.1345 5.95397 37.4983 5.09725 35.7172C3.38381 32.1548 2.74128 28.2362 2.74128 24.3889C2.74128 20.1853 2.09873 16.1954 0.813652 12.2056C0.0283253 9.85441 -0.328668 7.36076 0.385266 4.8671C1.45617 1.16225 4.16914 -0.690183 7.95299 0.236031C11.3799 1.091 14.664 0.948503 18.1622 0.236031C22.5886 -0.690183 25.5871 1.73223 25.8727 6.14956C25.9441 7.5745 26.2297 9.14194 25.7299 10.3531C22.8742 17.1216 24.3735 24.3889 23.0884 31.2998C22.66 33.651 22.0175 35.9309 21.1608 38.0683C20.8038 38.9945 20.2327 39.8495 19.1618 39.7783C18.0909 39.707 17.5197 38.7808 17.3055 37.8546C16.5916 35.0047 16.0204 32.0836 15.3065 29.2337C14.9495 28.0937 14.8781 26.5263 12.5936 25.8138ZM11.594 3.22841C9.38084 1.80347 7.16763 0.94851 4.66887 1.94597C2.24149 2.94343 1.45617 4.93835 1.59896 7.36076C1.67035 9.14194 1.67035 10.9231 2.3129 12.5618C3.52658 15.6967 3.88356 18.9028 3.88356 22.2514C3.88356 26.6688 4.5261 30.9436 6.38233 35.0047C6.88208 36.1446 7.23906 37.4984 8.80972 37.9258C9.95201 36.5009 9.8806 34.8622 9.95199 33.2235C10.0234 31.4423 9.95198 29.6612 10.5231 27.9512C10.9515 26.3838 11.1657 24.3176 13.1647 24.1751C15.3779 24.0326 15.8776 26.17 16.3774 27.88C17.1627 30.5874 17.5911 33.4373 18.2336 36.1447C18.3764 36.9284 18.3764 37.8546 19.7329 37.8546C21.3035 35.2184 21.9461 32.2261 22.2317 29.1624C22.7314 22.6077 22.2316 15.9817 24.8018 9.71192C24.8732 9.56942 24.8732 9.49818 24.8732 9.35568C25.3016 6.57704 25.2302 3.86965 22.4458 2.08846C20.3754 0.806013 16.5202 1.51848 14.1642 3.44216C15.7349 4.8671 17.9481 2.3022 19.7329 4.01214C15.2351 6.71953 11.0229 6.3633 6.52512 4.79586C7.8102 3.08593 10.0234 4.79585 11.594 3.22841Z" fill="#DADADA"/>
</svg>
