<svg width="26" height="41" viewBox="0 0 26 41" fill="none" xmlns="http://www.w3.org/2000/svg">
<path d="M12.6525 25.9351C10.8677 27.3601 10.5821 29.2838 10.1537 31.2787C9.65397 33.7011 9.51118 36.1947 8.51167 38.4747C8.15471 39.2584 7.79774 40.0421 6.79823 40.0421C5.87012 40.0421 5.37037 39.3296 5.0134 38.5459C3.15717 34.4136 2.30045 29.9962 2.15767 25.5077C1.94349 20.8053 2.22906 16.103 0.444225 11.5432C-0.126922 10.1895 0.0158652 8.47956 0.0158652 6.98337C0.158652 1.78232 3.44275 -0.782587 8.51167 0.35737C11.3674 0.998595 14.0804 1.28358 16.9361 0.42861C22.5762 -1.28132 26.717 2.28104 25.6461 8.33706C24.5038 15.3193 22.8617 22.0878 22.7189 29.2125C22.6476 32.2049 21.3625 35.1973 19.7204 37.8334C19.0065 38.9021 18.364 40.3271 16.7219 39.8284C15.3654 39.4009 15.2226 38.1184 15.1513 36.9072C14.9371 33.9861 15.0799 30.9937 14.2231 28.1438C14.009 27.4313 13.9376 26.5764 12.6525 25.9351ZM12.2241 3.421C10.7963 2.06731 9.22561 2.0673 7.72635 1.78231C3.9425 1.06984 1.8007 2.85103 1.58652 6.62713C1.51513 9.26328 1.58652 11.8282 2.51463 14.3218C3.15717 16.103 3.87111 17.9554 3.51414 19.8791C2.65742 25.0802 4.01389 29.9962 5.0134 34.9123C5.22758 36.1235 5.29897 37.5484 6.94102 38.1184C8.58307 35.696 8.08331 32.8461 9.01143 30.3525C9.86815 28.0725 9.58257 24.2252 12.9381 24.5102C15.8652 24.7239 15.4368 28.3575 15.9366 30.7087C16.4363 33.2024 16.5791 35.696 16.9361 38.2609C18.7209 37.9047 19.0779 36.6222 19.5062 35.6248C21.0055 31.9912 22.0764 28.215 22.0764 24.2964C22.005 20.3778 22.1478 16.5305 23.5757 12.7544C24.361 10.7595 24.361 8.55081 24.2896 6.41339C24.1468 4.20472 23.3615 2.49479 21.0055 1.92481C18.5067 1.28358 16.4363 1.99605 14.009 3.34975C16.0794 4.70345 18.2212 3.27851 19.649 5.20219C15.0085 6.48464 10.6535 7.05461 6.44127 4.27597C8.29749 2.42354 10.2965 4.98844 12.2241 3.421Z" fill="#DADADA"/>
</svg>
