<svg width="24" height="25" viewBox="0 0 24 25" fill="none" xmlns="http://www.w3.org/2000/svg">
<g clip-path="url(#clip0_168_401)">
<path d="M2 22.5C2 20.3783 2.84285 18.3434 4.34315 16.8431C5.84344 15.3429 7.87827 14.5 10 14.5C12.1217 14.5 14.1566 15.3429 15.6569 16.8431C17.1571 18.3434 18 20.3783 18 22.5H16C16 20.9087 15.3679 19.3826 14.2426 18.2574C13.1174 17.1321 11.5913 16.5 10 16.5C8.4087 16.5 6.88258 17.1321 5.75736 18.2574C4.63214 19.3826 4 20.9087 4 22.5H2ZM10 13.5C6.685 13.5 4 10.815 4 7.5C4 4.185 6.685 1.5 10 1.5C13.315 1.5 16 4.185 16 7.5C16 10.815 13.315 13.5 10 13.5ZM10 11.5C12.21 11.5 14 9.71 14 7.5C14 5.29 12.21 3.5 10 3.5C7.79 3.5 6 5.29 6 7.5C6 9.71 7.79 11.5 10 11.5ZM18.284 15.203C19.6893 15.8359 20.882 16.8612 21.7186 18.1557C22.5552 19.4502 23.0002 20.9587 23 22.5H21C21.0002 21.344 20.6666 20.2125 20.0391 19.2416C19.4116 18.2707 18.5171 17.5017 17.463 17.027L18.283 15.203H18.284ZM17.596 3.913C18.6035 4.3283 19.465 5.03354 20.071 5.93923C20.6771 6.84492 21.0004 7.91024 21 9C21.0004 10.3723 20.4877 11.6952 19.5625 12.7088C18.6374 13.7224 17.3667 14.3535 16 14.478V12.465C16.7409 12.3589 17.4283 12.018 17.9613 11.4925C18.4943 10.9669 18.8447 10.2843 18.9612 9.54493C19.0776 8.80555 18.954 8.0483 18.6084 7.38435C18.2628 6.72041 17.7134 6.18475 17.041 5.856L17.596 3.913Z" fill="#969696"/>
</g>
<defs>
<clipPath id="clip0_168_401">
<rect width="24" height="24" fill="white" transform="translate(0 0.5)"/>
</clipPath>
</defs>
</svg>
