<svg width="24" height="25" viewBox="0 0 24 25" fill="none" xmlns="http://www.w3.org/2000/svg">
<g clip-path="url(#clip0_168_407)">
<path d="M14 2.5C15.83 2.49913 17.6049 3.12567 19.0288 4.27513C20.4528 5.42458 21.4396 7.02748 21.8247 8.81647C22.2098 10.6055 21.9699 12.4724 21.145 14.1059C20.3202 15.7395 18.9602 17.0408 17.292 17.793C16.7588 18.9719 15.9475 20.0039 14.9279 20.8004C13.9082 21.597 12.7106 22.1343 11.4376 22.3663C10.1647 22.5984 8.85449 22.5182 7.61936 22.1327C6.38423 21.7472 5.26103 21.0678 4.34611 20.1529C3.43118 19.238 2.75183 18.1148 2.36631 16.8796C1.98079 15.6445 1.90061 14.3343 2.13265 13.0614C2.36469 11.7884 2.90203 10.5908 3.69857 9.57114C4.49511 8.55148 5.52708 7.74024 6.70599 7.207C7.34014 5.80389 8.36558 4.6135 9.65934 3.77861C10.9531 2.94371 12.4602 2.49976 14 2.5ZM9.99999 8.5C9.21206 8.5 8.43185 8.6552 7.70389 8.95672C6.97594 9.25825 6.31451 9.70021 5.75735 10.2574C5.2002 10.8145 4.75825 11.4759 4.45672 12.2039C4.15519 12.9319 3.99999 13.7121 3.99999 14.5C3.99999 15.2879 4.15519 16.0681 4.45672 16.7961C4.75825 17.5241 5.2002 18.1855 5.75735 18.7426C6.31451 19.2998 6.97594 19.7417 7.70389 20.0433C8.43185 20.3448 9.21206 20.5 9.99999 20.5C11.5913 20.5 13.1174 19.8679 14.2426 18.7426C15.3679 17.6174 16 16.0913 16 14.5C16 12.9087 15.3679 11.3826 14.2426 10.2574C13.1174 9.13214 11.5913 8.5 9.99999 8.5ZM11 9.5V10.5H13V12.5H8.99999C8.87505 12.4998 8.75454 12.5463 8.66221 12.6305C8.56988 12.7147 8.51241 12.8304 8.50112 12.9548C8.48983 13.0793 8.52554 13.2034 8.60121 13.3028C8.67689 13.4023 8.78705 13.4697 8.90999 13.492L8.99999 13.5H11C11.663 13.5 12.2989 13.7634 12.7678 14.2322C13.2366 14.7011 13.5 15.337 13.5 16C13.5 16.663 13.2366 17.2989 12.7678 17.7678C12.2989 18.2366 11.663 18.5 11 18.5V19.5H8.99999V18.5H6.99999V16.5H11C11.1249 16.5002 11.2454 16.4537 11.3378 16.3695C11.4301 16.2853 11.4876 16.1696 11.4989 16.0452C11.5102 15.9207 11.4745 15.7966 11.3988 15.6972C11.3231 15.5977 11.2129 15.5303 11.09 15.508L11 15.5H8.99999C8.33695 15.5 7.70107 15.2366 7.23223 14.7678C6.76339 14.2989 6.49999 13.663 6.49999 13C6.49999 12.337 6.76339 11.7011 7.23223 11.2322C7.70107 10.7634 8.33695 10.5 8.99999 10.5V9.5H11ZM14 4.5C13.1527 4.49901 12.3148 4.67794 11.5418 5.02496C10.7688 5.37198 10.0783 5.87918 9.51599 6.513C10.6463 6.44439 11.7782 6.6165 12.837 7.01795C13.8958 7.4194 14.8573 8.04105 15.6579 8.84178C16.4586 9.64252 17.0801 10.6041 17.4814 11.6629C17.8828 12.7218 18.0547 13.8537 17.986 14.984C18.8952 14.1756 19.5372 13.1099 19.8268 11.9283C20.1164 10.7467 20.04 9.50492 19.6076 8.36772C19.1753 7.23053 18.4074 6.25164 17.4059 5.56088C16.4044 4.87013 15.2166 4.50014 14 4.5Z" fill="#969696"/>
</g>
<defs>
<clipPath id="clip0_168_407">
<rect width="24" height="24" fill="white" transform="translate(0 0.5)"/>
</clipPath>
</defs>
</svg>
