<svg width="15" height="24" viewBox="0 0 15 24" fill="none" xmlns="http://www.w3.org/2000/svg">
<path d="M7.39926 7.84541C7.67797 7.35766 7.95669 6.93959 8.16572 6.5912C9.14122 4.84924 10.1167 3.17696 11.1619 1.50467C11.3709 1.15628 11.6496 0.807891 11.9284 0.459499C12.3464 -0.0282495 12.9039 -0.0979279 13.3219 0.111107C13.74 0.389821 13.8793 0.807891 13.6703 1.36532C13.531 1.85307 13.2522 2.34082 13.0432 2.82856C11.8587 5.05827 10.6741 7.28798 9.48961 9.51769C9.28058 9.93576 9.07154 10.3538 8.8625 10.7719C9.62897 12.3048 10.3258 13.8377 11.0225 15.301C11.8587 17.1823 12.7645 18.9939 13.6006 20.8753C13.8097 21.2933 13.949 21.6417 14.0187 22.0598C14.1581 22.6869 13.949 23.0353 13.531 23.314C13.1129 23.5927 12.5555 23.4534 12.1374 22.8959C11.8587 22.5475 11.6496 22.1992 11.4406 21.7811C10.3258 19.6907 9.28058 17.5307 8.2354 15.3707C7.95669 14.8132 7.67797 14.2558 7.32958 13.559C6.98119 14.1165 6.77215 14.5345 6.56312 14.9526C5.37859 17.1823 4.12438 19.412 2.93984 21.6417C2.66113 22.1295 2.38242 22.5475 2.1037 22.9656C1.96435 23.1747 1.75531 23.4534 1.54628 23.5927C1.26756 23.8714 0.779813 23.8714 0.501099 23.6624C0.152707 23.5927 -0.0563279 23.314 0.0133505 22.9656C0.0830289 22.5475 0.222386 22.1295 0.361742 21.7114C1.1282 19.9694 1.96435 18.2275 2.80049 16.5552C3.56695 14.9526 4.40309 13.4197 5.23923 11.8868C5.44826 11.5384 5.58762 11.1203 5.79666 10.7022C5.03019 9.02994 4.19405 7.42734 3.35791 5.82473C2.80049 4.70988 2.24306 3.59503 1.75531 2.48017C1.54628 2.13178 1.4766 1.78339 1.40692 1.435C1.26756 0.877569 1.4766 0.459499 1.89467 0.180786C2.31274 -0.0282495 2.80049 0.111107 3.14888 0.529178C3.35791 0.807891 3.56695 1.15628 3.77598 1.50467C4.82116 3.31631 5.79666 5.05827 6.77215 6.86991C6.98119 7.14862 7.12055 7.42734 7.39926 7.84541Z" fill="#515151"/>
</svg>
