<svg width="16" height="17" viewBox="0 0 16 17" fill="none" xmlns="http://www.w3.org/2000/svg">
<g clip-path="url(#clip0_263_1808)">
<path d="M11.3333 11.4176H12.6667V3.41756H6V4.7509H11.3333V11.4176ZM11.3333 12.7509V14.7509C11.3333 15.1189 11.0333 15.4176 10.662 15.4176H2.67133C2.58342 15.4181 2.49626 15.4012 2.41488 15.368C2.3335 15.3347 2.25949 15.2857 2.19711 15.2238C2.13472 15.1618 2.0852 15.0881 2.05137 15.007C2.01754 14.9258 2.00009 14.8388 2 14.7509L2.002 5.41756C2.002 5.04956 2.302 4.7509 2.67333 4.7509H4.66667V2.7509C4.66667 2.57408 4.7369 2.40451 4.86193 2.27949C4.98695 2.15447 5.15652 2.08423 5.33333 2.08423H13.3333C13.5101 2.08423 13.6797 2.15447 13.8047 2.27949C13.9298 2.40451 14 2.57408 14 2.7509V12.0842C14 12.261 13.9298 12.4306 13.8047 12.5556C13.6797 12.6807 13.5101 12.7509 13.3333 12.7509H11.3333ZM4.66667 11.4176V12.7509H6V13.4176H7.33333V12.7509H7.66667C8.10869 12.7509 8.53262 12.5753 8.84518 12.2627C9.15774 11.9502 9.33333 11.5263 9.33333 11.0842C9.33333 10.6422 9.15774 10.2183 8.84518 9.90572C8.53262 9.59316 8.10869 9.41756 7.66667 9.41756H5.66667C5.57826 9.41756 5.49348 9.38244 5.43096 9.31993C5.36845 9.25742 5.33333 9.17263 5.33333 9.08423C5.33333 8.99582 5.36845 8.91104 5.43096 8.84853C5.49348 8.78601 5.57826 8.7509 5.66667 8.7509H8.66667V7.41756H7.33333V6.7509H6V7.41756H5.66667C5.22464 7.41756 4.80072 7.59316 4.48816 7.90572C4.17559 8.21828 4 8.6422 4 9.08423C4 9.52626 4.17559 9.95018 4.48816 10.2627C4.80072 10.5753 5.22464 10.7509 5.66667 10.7509H7.66667C7.75507 10.7509 7.83986 10.786 7.90237 10.8485C7.96488 10.911 8 10.9958 8 11.0842C8 11.1726 7.96488 11.2574 7.90237 11.3199C7.83986 11.3824 7.75507 11.4176 7.66667 11.4176H4.66667Z" fill="#939393"/>
</g>
<defs>
<clipPath id="clip0_263_1808">
<rect width="16" height="16" fill="white" transform="translate(0 0.750977)"/>
</clipPath>
</defs>
</svg>
