<svg width="24" height="25" viewBox="0 0 24 25" fill="none" xmlns="http://www.w3.org/2000/svg">
<g clip-path="url(#clip0_168_414)">
<path d="M6.455 19.5L2 23V4.5C2 4.23478 2.10536 3.98043 2.29289 3.79289C2.48043 3.60536 2.73478 3.5 3 3.5H21C21.2652 3.5 21.5196 3.60536 21.7071 3.79289C21.8946 3.98043 22 4.23478 22 4.5V18.5C22 18.7652 21.8946 19.0196 21.7071 19.2071C21.5196 19.3946 21.2652 19.5 21 19.5H6.455ZM4 18.885L5.763 17.5H20V5.5H4V18.885ZM11 13.5H13V15.5H11V13.5ZM11 7.5H13V12.5H11V7.5Z" fill="#969696"/>
</g>
<defs>
<clipPath id="clip0_168_414">
<rect width="24" height="24" fill="white" transform="translate(0 0.5)"/>
</clipPath>
</defs>
</svg>
