<svg width="25" height="24" viewBox="0 0 25 24" fill="none" xmlns="http://www.w3.org/2000/svg">
<g clip-path="url(#clip0_699_1428)">
<path d="M21.1536 20C21.1536 20.2652 21.0482 20.5196 20.8607 20.7071C20.6731 20.8947 20.4188 21 20.1536 21H4.15356C3.88835 21 3.63399 20.8947 3.44646 20.7071C3.25892 20.5196 3.15356 20.2652 3.15356 20V9.49003C3.15346 9.33764 3.18818 9.18724 3.25508 9.05033C3.32198 8.91341 3.41928 8.79359 3.53956 8.70003L11.5396 2.47803C11.7151 2.34147 11.9312 2.26733 12.1536 2.26733C12.376 2.26733 12.592 2.34147 12.7676 2.47803L20.7676 8.70003C20.8878 8.79359 20.9852 8.91341 21.052 9.05033C21.1189 9.18724 21.1537 9.33764 21.1536 9.49003V20ZM19.1536 19V9.97803L12.1536 4.53403L5.15356 9.97803V19H19.1536ZM7.15356 15H17.1536V17H7.15356V15Z" fill="#939393"/>
</g>
<defs>
<clipPath id="clip0_699_1428">
<rect width="24" height="24" fill="white" transform="translate(0.153564)"/>
</clipPath>
</defs>
</svg>
