<svg width="16" height="17" viewBox="0 0 16 17" fill="none" xmlns="http://www.w3.org/2000/svg">
<g clip-path="url(#clip0_199_1140)">
<path d="M9.33329 9.6352V11.0285C8.72991 10.8152 8.08414 10.7498 7.45023 10.8377C6.81631 10.9257 6.21276 11.1645 5.69025 11.534C5.16773 11.9036 4.74152 12.3931 4.4474 12.9615C4.15328 13.5299 3.99984 14.1606 3.99996 14.8005L2.66663 14.7999C2.66642 13.9858 2.85257 13.1825 3.21083 12.4515C3.56908 11.7205 4.08992 11.0812 4.73344 10.5826C5.37696 10.084 6.12608 9.73929 6.92339 9.57497C7.72071 9.41064 8.54507 9.43102 9.33329 9.63454V9.6352ZM7.99996 8.80054C5.78996 8.80054 3.99996 7.01054 3.99996 4.80054C3.99996 2.59054 5.78996 0.800537 7.99996 0.800537C10.21 0.800537 12 2.59054 12 4.80054C12 7.01054 10.21 8.80054 7.99996 8.80054ZM7.99996 7.4672C9.47329 7.4672 10.6666 6.27387 10.6666 4.80054C10.6666 3.3272 9.47329 2.13387 7.99996 2.13387C6.52663 2.13387 5.33329 3.3272 5.33329 4.80054C5.33329 6.27387 6.52663 7.4672 7.99996 7.4672ZM12 11.4672V9.4672H13.3333V11.4672H15.3333V12.8005H13.3333V14.8005H12V12.8005H9.99996V11.4672H12Z" fill="url(#paint0_linear_199_1140)"/>
</g>
<defs>
<linearGradient id="paint0_linear_199_1140" x1="2.43731" y1="1.67976" x2="17.826" y2="5.82209" gradientUnits="userSpaceOnUse">
<stop stop-color="#FEF7F7"/>
<stop offset="0.51" stop-color="#E4EEEE"/>
<stop offset="1" stop-color="#F4E3E3"/>
</linearGradient>
<clipPath id="clip0_199_1140">
<rect width="16" height="16" fill="white" transform="translate(0 0.133789)"/>
</clipPath>
</defs>
</svg>
