<svg width="48" height="49" viewBox="0 0 48 49" fill="none" xmlns="http://www.w3.org/2000/svg">
<g clip-path="url(#clip0_264_1166)">
<path d="M28 29.255V44.751H8C7.99938 42.3088 8.55784 39.8988 9.6326 37.7058C10.7074 35.5127 12.2699 33.5948 14.2004 32.099C16.131 30.6032 18.3784 29.5692 20.7703 29.0763C23.1623 28.5833 25.6353 28.6444 28 29.255ZM24 26.751C17.37 26.751 12 21.381 12 14.751C12 8.12098 17.37 2.75098 24 2.75098C30.63 2.75098 36 8.12098 36 14.751C36 21.381 30.63 26.751 24 26.751ZM36 34.751V28.751H40V34.751H46V38.751H40V44.751H36V38.751H30V34.751H36Z" fill="#969696"/>
</g>
<defs>
<clipPath id="clip0_264_1166">
<rect width="48" height="48" fill="white" transform="translate(0 0.750977)"/>
</clipPath>
</defs>
</svg>
