<svg width="17" height="26" viewBox="0 0 17 26" fill="none" xmlns="http://www.w3.org/2000/svg">
<path d="M9.57746 7.8225C10.8619 5.99142 11.0453 4.20611 11.7334 2.64969C12.1004 1.87148 12.3297 0.910156 13.3389 0.910156C14.4857 0.910156 14.715 1.96303 14.9444 2.8328C15.6783 5.21321 15.5866 7.68517 15.2196 10.0656C14.8526 12.5833 15.3113 14.8722 15.9535 17.2068C16.3664 18.6717 16.6875 20.1366 16.3205 21.693C15.7242 24.1192 14.6233 25.172 12.1462 24.9889C9.71508 24.8058 7.32978 24.8058 4.89862 24.9889C2.05462 25.2178 0.724358 23.8903 0.449132 21.0063C0.265648 19.1295 0.724359 17.3899 1.32068 15.6504C1.73352 14.3686 1.77939 13.1784 1.59591 11.8509C1.1372 8.87538 1.68765 5.94564 2.28397 3.06168C2.74268 1.00171 3.38488 1.59681 5.31146 1.27637C9.02701 0.681271 8.06372 3.38212 8.75178 4.98432C9.11875 5.71676 9.25637 6.54074 9.57746 7.8225ZM13.5682 1.87148C12.4673 2.46658 12.4673 3.29057 12.1921 3.97723C11.5958 5.44209 11.0912 6.95274 10.4949 8.41761C10.1279 9.28737 9.62333 10.1571 8.5683 10.1571C7.42152 10.1571 6.87107 9.19582 6.59585 8.2345C6.09127 6.58652 5.67842 4.89277 5.17384 3.19901C5.03623 2.69546 4.99036 2.05458 4.3023 2.00881C3.52249 1.96303 3.29314 2.69546 3.15552 3.24479C2.78855 4.93854 2.42159 6.67808 2.51333 8.41761C2.69681 11.9882 2.46746 15.5588 1.41242 18.9921C1.04545 20.2281 1.22894 21.4183 1.77939 22.517C2.65094 24.2565 5.63256 24.5312 7.10043 23.0205C6.04539 22.4254 4.43991 23.7987 3.61423 21.8303C5.44907 22.2423 6.96282 21.8761 8.20133 20.6401C8.79766 21.1437 9.25637 21.6472 10.0362 21.8303C10.7242 22.0134 11.5958 21.8303 12.0545 22.7001C11.1371 23.7987 9.80682 22.1965 8.75178 23.1121C9.76095 23.9818 10.8619 23.9361 11.9169 23.9361C14.5315 24.0276 15.4489 23.0663 15.5866 20.4112C15.6324 19.0379 15.449 17.6646 14.9444 16.3828C14.0269 14.0024 14.1646 11.6678 14.4857 9.19582C14.8526 6.81541 14.8526 4.34344 13.5682 1.87148Z" fill="#939393"/>
</svg>
