<svg width="17" height="49" viewBox="0 0 17 49" fill="none" xmlns="http://www.w3.org/2000/svg">
<path d="M16.8547 7.76512C16.7833 9.90254 16.4264 12.3962 15.3555 14.6761C13.2137 19.4497 12.7139 24.5082 12.1428 29.4955C11.4289 35.2666 9.71542 40.8239 8.21616 46.3811C7.93058 47.4499 7.7164 48.946 6.14574 48.8035C4.93205 48.7323 4.71788 47.3786 4.36091 46.3811C3.86115 45.0274 3.93255 43.6025 3.93255 42.1775C3.86116 36.4778 4.14673 30.8492 3.29001 25.1495C2.93304 22.6558 2.57607 20.2334 1.64796 17.8822C0.291485 14.2486 0.148707 10.4725 0.00592044 6.69641C-0.20826 2.63532 5.43181 -1.06954 9.92959 0.284162C15.4983 2.20784 16.9261 2.77781 16.8547 7.76512ZM6.43132 47.1649C8.21616 42.1063 9.50123 37.6177 10.2866 32.9867C11.4289 26.3607 11.7144 19.5922 14.4988 13.3224C15.2127 11.6837 15.3555 9.90254 15.3555 8.12135C15.4269 3.63278 14.2846 2.84906 10.0724 4.48775C9.21566 4.84399 8.71591 5.84144 7.28804 5.27146C1.71936 2.99155 1.00543 3.63278 1.43379 9.5463C1.50518 10.2588 1.64796 10.9712 1.71936 11.6837C1.86214 15.3886 3.64698 18.7372 4.28952 22.2996C5.36042 28.2843 4.78927 34.3404 4.93206 40.3251C4.86066 42.3913 4.71788 44.6 6.43132 47.1649Z" fill="#DADADA"/>
</svg>
