<svg width="17" height="49" viewBox="0 0 17 49" fill="none" xmlns="http://www.w3.org/2000/svg">
<path d="M9.39051 0C11.0326 0.712473 11.1753 2.13742 11.2467 3.56236C11.8179 11.2571 12.4604 18.8805 13.3171 26.504C13.6027 28.8551 14.0311 31.2063 14.9592 33.3437C15.8873 35.4099 16.3157 37.6186 16.5299 39.8272C17.101 45.4558 11.3895 49.9443 5.96362 48.0207C0.894693 46.2395 -0.96152 43.9596 0.466346 37.7611C3.1079 26.5752 3.67904 15.0332 6.82035 3.98985C7.24871 2.49365 7.60568 0.854967 9.39051 0ZM9.31912 1.99492C8.17682 2.92114 8.10542 4.27484 7.74845 5.48604C5.53526 13.1807 5.39248 21.3029 3.60765 29.1401C3.17929 30.9926 3.75044 31.99 6.10642 31.5625C8.10543 31.2063 10.39 30.4938 12.6032 32.9875C9.5333 32.9162 7.10592 32.7025 4.67855 33.415C3.75044 33.7 2.89371 33.7 2.46535 34.7687C1.46584 37.2623 1.03748 39.8272 1.68002 42.3921C2.10838 44.1733 2.9651 45.3133 5.24969 44.2446C7.39149 43.2471 9.46189 42.3209 12.0321 43.8883C13.8883 45.0283 15.3162 43.8171 15.459 41.4659C15.5303 39.0435 15.2448 36.7636 14.1739 34.5549C13.0316 32.2038 12.2462 29.7101 12.1035 27.074C11.6751 20.0205 10.1758 13.0382 10.4614 5.91352C10.3186 4.63107 10.5328 3.20613 9.31912 1.99492Z" fill="#DADADA"/>
</svg>
