<svg width="12" height="47" viewBox="0 0 12 47" fill="none" xmlns="http://www.w3.org/2000/svg">
<path d="M0.0646436 7.80158C0.0646436 7.30285 -0.00674975 6.87537 0.0646436 6.37663C0.350217 4.52421 -0.86347 2.03055 1.49251 0.961838C4.27685 -0.320613 7.27538 -0.320613 10.1311 0.961838C11.7018 1.67431 11.4876 3.24176 11.6304 4.6667C11.9873 9.44027 10.7737 14.0713 10.2025 18.7737C9.27439 26.1834 9.77413 33.6643 9.55995 41.074C9.48856 42.9977 10.2739 45.9189 7.77512 46.1326C5.56192 46.3463 5.70472 43.354 5.41914 41.644C3.63431 32.0256 1.84949 22.336 0.207439 12.7176C-0.0781344 11.0789 0.136041 9.44026 0.136041 7.73033C0.136041 7.80158 0.136037 7.80158 0.0646436 7.80158ZM7.70374 44.2802C8.70325 43.2115 8.63185 42.0003 8.63185 40.8603C8.63185 37.4404 8.84602 33.9493 8.56045 30.6007C7.91791 22.2648 9.98832 14.1426 10.0597 5.87791C10.0597 2.2443 9.48856 1.67432 5.99028 1.60307C2.34922 1.53182 1.70669 2.2443 1.56391 5.87791C1.27833 13.4301 3.34873 20.6261 4.20545 27.9646C4.91938 33.5931 6.27587 38.9366 7.70374 44.2802Z" fill="#DADADA"/>
</svg>
