<svg width="11" height="34" viewBox="0 0 11 34" fill="none" xmlns="http://www.w3.org/2000/svg">
<path d="M5.64941 33.9432C0.787078 33.989 0.465981 33.4397 0.832949 28.5415C1.19992 23.2771 2.57606 18.2416 3.26412 13.0688C3.63109 10.1391 3.81457 7.16358 4.36502 4.27962C4.45676 3.68452 4.5485 3.04364 4.77786 2.49431C5.14483 1.7161 5.28244 0.480117 6.38334 0.525894C7.53012 0.571672 7.43838 1.85343 7.62187 2.67742C7.89709 4.00496 7.98884 5.37827 8.12645 6.75159C8.49342 11.0089 8.95213 15.2204 9.50258 19.4319C9.77781 21.7665 10.6035 23.9638 10.6494 26.39C10.7411 28.3126 10.42 30.1895 10.4659 32.0663C10.5117 33.2566 9.7778 33.8974 8.63102 33.9432C7.62186 33.989 6.6127 33.9432 5.64941 33.9432ZM2.66779 21.6292C1.42927 24.9251 1.84211 28.3126 1.79624 31.7001C1.79624 32.6614 2.53018 32.9819 3.35585 32.9819C4.96134 32.9819 6.56684 32.9819 8.12645 32.9361C8.86039 32.9361 9.68606 32.7072 9.68606 31.929C9.73193 28.6331 10.5576 25.2913 8.95212 22.1327C8.17232 15.3119 7.34664 8.53689 6.52097 1.21255C5.32832 2.81475 5.1907 4.14229 5.00721 5.46983C4.22741 10.8258 3.4476 16.2275 2.66779 21.6292Z" fill="#939393"/>
</svg>
