<svg width="10" height="36" viewBox="0 0 10 36" fill="none" xmlns="http://www.w3.org/2000/svg">
<path d="M9.57592 29.5415C9.57592 32.7459 7.97045 34.76 4.89709 35.3094C2.83289 35.6756 0.40172 33.3867 0.172365 31.0063C-0.102861 28.3513 0.676949 25.8793 1.13566 23.3615C2.14482 17.8225 1.73198 12.1461 2.92463 6.65288C3.24572 5.18801 3.47508 3.67737 4.0714 2.25828C4.34663 1.66317 4.48425 0.793409 5.3558 0.93074C6.18148 1.06807 6.22734 1.84628 6.36495 2.53294C6.50256 3.35693 6.68606 4.18092 6.73193 5.00491C6.96128 12.375 7.51173 19.6994 9.20896 26.8864C9.48419 27.7104 9.48418 28.6717 9.57592 29.5415ZM5.58515 2.34983C5.40167 2.30405 5.21818 2.25828 5.0347 2.2125C3.88792 5.09646 3.42921 8.16353 3.15398 11.2306C2.69527 16.907 2.55767 22.6291 0.998052 28.1681C0.722826 29.1295 0.72282 30.1366 0.906304 31.0979C1.2274 32.8374 3.06224 34.3938 4.57598 34.3023C6.54844 34.1649 8.47502 32.3796 8.47502 30.5943C8.47502 29.0837 8.52089 27.5273 8.19979 26.0624C7.05302 20.4776 6.18148 14.847 6.04386 9.17063C6.04386 6.88177 5.76864 4.63869 5.58515 2.34983Z" fill="#939393"/>
</svg>
