<svg width="12" height="47" viewBox="0 0 12 47" fill="none" xmlns="http://www.w3.org/2000/svg">
<path d="M1.48733 32.7295C1.98708 23.9661 -0.226111 14.704 0.0594622 5.37061C0.130856 3.58943 -0.654467 1.38075 1.91569 0.597034C4.84282 -0.329181 7.84134 -0.257929 10.4829 1.38076C11.6966 2.16448 11.411 3.66067 11.3396 4.94312C11.2682 9.78793 10.5543 14.5615 9.69757 19.3351C8.2697 27.2435 7.41298 35.2232 5.41396 42.9892C5.27118 43.5591 5.19978 44.1291 5.057 44.6991C4.84282 45.4828 4.55725 46.409 3.48635 46.2665C2.70102 46.1953 2.34405 45.4828 2.12987 44.7703C1.34454 42.8467 1.55873 40.7805 1.55873 38.7856C1.41594 37.0756 1.48733 35.2232 1.48733 32.7295ZM3.41495 43.9866C5.62814 36.8619 6.84183 29.5234 7.76995 22.185C8.48388 16.5564 10.3401 11.1416 9.98313 5.37061C9.91174 4.23065 10.1973 2.8057 8.91223 2.23572C6.77043 1.23826 4.48585 1.30951 2.34405 2.16448C0.48782 2.87695 1.05896 4.80063 1.05896 6.22557C1.20175 13.2791 2.34405 20.3325 2.77241 27.386C3.12938 32.9433 2.62962 38.4293 3.41495 43.9866Z" fill="#DADADA"/>
</svg>
