<svg width="11" height="34" viewBox="0 0 11 34" fill="none" xmlns="http://www.w3.org/2000/svg">
<path d="M10.7505 29.274C10.7046 33.9891 10.7046 33.9891 5.88813 33.9891C1.16342 33.9891 1.16342 33.9891 0.65884 29.3656C0.475356 27.5345 0.612977 25.6576 1.02582 23.9181C2.72304 17.3262 2.81478 10.5512 3.64046 3.86769C3.77807 2.63171 3.59458 0.709066 4.97071 0.571735C6.71381 0.388626 6.75969 2.4486 6.98905 3.6388C7.58537 6.6601 8.08994 9.77294 8.27343 12.8858C8.50278 17.0973 10.0624 21.0341 10.4294 25.1998C10.567 26.5732 10.6587 27.9465 10.7505 29.274ZM9.55781 27.9922C9.55781 26.7105 9.60368 25.4287 9.55781 24.147C9.51194 23.4603 9.37433 22.8652 8.64039 22.4532C5.42942 20.6679 1.71388 22.6821 1.62213 26.2985C1.57626 27.5803 1.57626 28.862 1.62213 30.1438C1.668 32.7988 1.80561 32.9362 4.512 32.982C10.5211 33.0277 9.69542 33.3482 9.55781 27.9922ZM8.50278 21.263C8.41104 15.2204 6.34685 3.50147 4.8331 1.67039C4.09917 8.49118 3.4111 14.9458 2.72303 21.6292C4.60375 20.9883 6.43859 20.3475 8.50278 21.263Z" fill="#939393"/>
</svg>
