<svg width="12" height="31" viewBox="0 0 12 31" fill="none" xmlns="http://www.w3.org/2000/svg">
<path d="M11.2455 5.32492C11.0161 7.11023 10.7409 9.07865 10.007 10.9097C9.13542 13.2444 8.8602 15.6248 8.95194 18.051C9.08955 21.6216 8.58496 25.1464 8.53909 28.717C8.53909 29.541 8.58497 30.5939 7.57581 30.777C6.52077 30.9601 6.33729 29.8615 5.92445 29.1748C5.23638 28.1219 5.23638 26.886 5.00703 25.6957C4.13548 21.53 3.49328 17.3643 2.80521 13.1528C2.52999 11.3675 1.61257 9.71953 1.19973 7.97999C0.282306 4.22627 1.15386 2.30363 4.27309 0.838761C7.11709 -0.488776 11.2914 2.07474 11.2455 5.32492ZM10.2363 5.64536C10.2822 3.31073 9.82349 2.80718 7.80516 3.53961C6.56665 3.99738 5.64922 3.81428 4.50244 3.44806C2.30064 2.7614 1.70431 3.26495 1.65844 5.59958C1.61257 7.06445 2.11716 8.43777 2.53 9.81108C2.71348 10.4062 3.08044 10.864 3.72263 11.0928C5.28225 11.6879 6.88774 11.7337 8.44735 11.2759C9.73174 10.864 9.41065 9.35331 9.82348 8.34621C10.1905 7.47645 10.2363 6.56091 10.2363 5.64536ZM3.72263 12.3288C4.50244 18.2341 5.1905 23.8189 6.9336 29.2206C7.80515 27.5268 8.5391 15.8994 8.218 12.3288C6.88774 12.7408 5.5116 12.5577 3.72263 12.3288Z" fill="#939393"/>
</svg>
