<svg width="16" height="53" viewBox="0 0 16 53" fill="none" xmlns="http://www.w3.org/2000/svg">
<path d="M7.66568 52.0124C0.097986 52.0837 -0.401767 51.2287 0.169379 43.6052C0.740526 35.4118 2.88234 27.5746 3.95324 19.5237C4.52439 14.9638 4.80996 10.3328 5.66668 5.8442C5.80946 4.91799 5.95225 3.92052 6.30921 3.06556C6.88036 1.85435 7.09454 -0.0693232 8.80798 0.00192411C10.5928 0.0731714 10.45 2.06809 10.7356 3.35055C11.164 5.41672 11.3068 7.55413 11.5209 9.69155C12.0921 16.3175 12.806 22.8723 13.6627 29.427C14.0911 33.0607 15.3762 36.4805 15.4476 40.2566C15.5904 43.249 15.0906 46.1702 15.162 49.0913C15.2334 50.9437 14.0911 51.9412 12.3062 52.0124C10.7356 52.0837 9.16494 52.0124 7.66568 52.0124ZM3.02511 32.8469C1.09749 37.9767 1.74004 43.249 1.66864 48.5213C1.66864 50.0175 2.81093 50.5162 4.09601 50.5162C6.59478 50.5162 9.09356 50.5162 11.5209 50.445C12.6632 50.445 13.9483 50.0887 13.9483 48.8775C14.0197 43.7477 15.3048 38.5467 12.806 33.6306C11.5923 23.0148 10.3073 12.4702 9.02217 1.07063C7.16595 3.56429 6.95175 5.63046 6.66618 7.69663C5.45249 16.0326 4.2388 24.4397 3.02511 32.8469Z" fill="#DADADA"/>
</svg>
