<svg width="11" height="36" viewBox="0 0 11 36" fill="none" xmlns="http://www.w3.org/2000/svg">
<path d="M10.2285 29.6787C10.3202 31.2809 10.2743 32.9289 8.85234 34.0733C7.65969 35.0347 6.32943 35.8587 4.67808 35.0347C2.79737 34.1191 0.824914 33.2494 0.916656 30.6858C1.0084 28.9463 1.19188 27.2068 1.55885 25.513C2.88911 19.2415 3.62304 12.9701 3.71478 6.56128C3.71478 5.18796 3.71479 3.81465 4.08175 2.48711C4.26524 1.84623 4.35698 0.976466 5.18265 0.930689C6.14595 0.884911 6.3753 1.75468 6.60466 2.48711C7.61382 5.55418 8.07253 8.7128 8.39363 11.8714C8.89821 17.3647 8.98995 22.9495 10.3202 28.3512C10.3202 28.7632 10.2285 29.221 10.2285 29.6787ZM5.32027 1.93779C4.54046 2.94488 4.72395 3.72309 4.67808 4.45553C4.54046 11.8256 3.66891 19.1042 2.20104 26.337C1.92581 27.7561 1.83407 29.221 1.87994 30.6401C1.92581 32.3796 3.66891 34.0276 5.64137 34.2565C7.10924 34.4396 8.66886 33.2951 9.26518 31.6472C9.63215 30.5943 9.49453 29.5872 9.44866 28.4885C9.26518 26.1539 8.39363 23.9108 8.21014 21.5762C7.75143 16.9069 7.75143 12.1919 6.92575 7.56837C6.51292 5.73729 6.19182 3.9062 5.32027 1.93779Z" fill="#939393"/>
</svg>
