<svg width="26" height="38" viewBox="0 0 26 38" fill="none" xmlns="http://www.w3.org/2000/svg">
<path d="M14.271 10.7583C16.27 7.90845 16.5556 5.1298 17.6265 2.7074C18.1976 1.49619 18.5546 0 20.1252 0C21.9101 0 22.267 1.63869 22.624 2.99239C23.7663 6.69724 23.6235 10.5446 23.0524 14.2495C22.4812 18.1681 23.1951 21.7304 24.1946 25.364C24.8372 27.6439 25.3369 29.9238 24.7658 32.3463C23.8377 36.1224 22.1242 37.761 18.269 37.4761C14.4852 37.1911 10.7727 37.1911 6.98885 37.4761C2.56247 37.8323 0.492062 35.7661 0.0637015 31.2775C-0.221872 28.3564 0.492063 25.649 1.42018 22.9416C2.06272 20.9467 2.13411 19.0943 1.84854 17.0281C1.1346 12.397 1.99132 7.8372 2.91944 3.34862C3.63337 0.142495 4.63287 1.06871 7.63139 0.569979C13.4143 -0.356235 11.915 3.84735 12.9859 6.34101C13.557 7.48096 13.7712 8.76341 14.271 10.7583ZM20.4822 1.49619C18.7688 2.42241 18.7688 3.70486 18.3404 4.77357C17.4123 7.05348 16.627 9.40464 15.6988 11.6845C15.1277 13.0382 14.3424 14.3919 12.7003 14.3919C10.9155 14.3919 10.0588 12.8958 9.63041 11.3996C8.84508 8.83466 8.20254 6.19851 7.41721 3.56236C7.20303 2.77864 7.13164 1.78118 6.06074 1.70993C4.84706 1.63869 4.49009 2.77864 4.27591 3.63361C3.70476 6.26976 3.13362 8.97715 3.2764 11.6845C3.56198 17.2418 3.20501 22.7991 1.56296 28.1427C0.991814 30.0663 1.27739 31.9188 2.13411 33.6287C3.49058 36.3361 8.13115 36.7636 10.4157 34.4124C8.77369 33.4862 6.27492 35.6236 4.98984 32.56C7.84558 33.2012 10.2016 32.6312 12.1292 30.7076C13.0573 31.4913 13.7712 32.275 14.9849 32.56C16.0558 32.845 17.4123 32.56 18.1262 33.9137C16.6983 35.6236 14.6279 33.13 12.9859 34.5549C14.5566 35.9086 16.27 35.8374 17.912 35.8374C21.9815 35.9799 23.4093 34.4837 23.6235 30.3513C23.6949 28.2139 23.4093 26.0765 22.624 24.0816C21.1961 20.3767 21.4103 16.7431 21.9101 12.8958C22.4812 9.1909 22.4812 5.34354 20.4822 1.49619Z" fill="#DADADA"/>
</svg>
