<svg width="12" height="32" viewBox="0 0 12 32" fill="none" xmlns="http://www.w3.org/2000/svg">
<path d="M11.155 5.32511C11.1092 6.69843 10.8798 8.30063 10.1918 9.7655C8.81562 12.8326 8.49453 16.0827 8.12756 19.2871C7.66885 22.9951 6.56795 26.5657 5.60465 30.1363C5.42117 30.823 5.28355 31.7843 4.27439 31.6928C3.49458 31.647 3.35697 30.7772 3.12761 30.1363C2.80652 29.2666 2.85239 28.351 2.85239 27.4355C2.80652 23.7733 2.99 20.1569 2.43955 16.4947C2.21019 14.8925 1.98084 13.3361 1.38452 11.8255C0.512966 9.49084 0.42123 7.06464 0.329488 4.63845C0.191875 2.02916 3.81568 -0.351251 6.70556 0.518515C10.2835 1.7545 11.2009 2.12071 11.155 5.32511ZM4.45788 30.6399C5.60465 27.3897 6.43033 24.5057 6.93491 21.5302C7.66885 17.2729 7.85233 12.9241 9.6413 8.89573C10.1 7.84286 10.1918 6.69843 10.1918 5.554C10.2376 2.67004 9.50369 2.16649 6.7973 3.21937C6.24684 3.44825 5.92575 4.08913 5.00833 3.72291C1.43039 2.25804 0.971682 2.67004 1.24691 6.46954C1.29278 6.92731 1.38452 7.38508 1.43039 7.84285C1.52213 10.2233 2.66891 12.3748 3.08175 14.6637C3.76981 18.5089 3.40284 22.4 3.49458 26.2453C3.44871 27.5728 3.35697 28.9919 4.45788 30.6399Z" fill="#939393"/>
</svg>
