<svg width="17" height="22" viewBox="0 0 17 22" fill="none" xmlns="http://www.w3.org/2000/svg">
<path d="M6.74276 3.76979C8.94457 0.519608 8.94457 0.519608 10.4583 2.44225C11.0546 1.84714 11.0088 0.473831 12.2014 0.565385C13.4858 0.65694 13.761 1.84714 14.1739 2.80846C14.8619 4.63955 14.9078 6.51642 14.8161 8.43906C14.7243 10.4075 14.8161 12.3759 15.55 14.2528C15.8711 15.1683 16.0546 16.1754 16.1005 17.1367C16.2381 20.3869 14.4491 22.1722 11.2381 21.8975C9.26567 21.7144 7.33909 21.6687 5.36663 21.8975C2.10979 22.3095 0.320823 20.3869 0.504308 17.1825C0.504308 16.9536 0.504307 16.7247 0.59605 16.4958C1.88044 12.6506 1.7887 8.57639 2.29328 4.59377C2.43089 3.44935 2.84373 2.39647 3.48592 1.43515C3.89876 0.794271 4.44921 0.153391 5.32076 0.290722C6.23818 0.428054 6.42167 1.25204 6.55928 2.03025C6.60515 2.48803 6.65102 2.9458 6.74276 3.76979ZM5.09141 1.16049C3.89876 1.80137 3.39418 2.76269 3.30244 3.81556C2.93547 8.39328 2.10979 12.9252 1.55934 17.5029C1.23824 20.2496 2.43089 21.1651 5.27489 20.9362C7.01799 20.7989 8.71522 20.6158 10.4583 20.8447C14.1739 21.394 15.3206 20.158 15.0454 16.4043C14.9995 15.9007 14.9995 15.3056 14.7702 14.8479C13.7152 12.3301 13.5775 9.72081 13.7152 7.01996C13.761 5.87553 13.6693 4.73111 13.4399 3.63245C13.2564 2.80847 13.073 1.80137 11.8803 1.70981C11.1923 2.76269 11.1464 3.95289 10.8253 5.00577C10.5042 6.10442 10.4583 7.24885 9.77025 8.21017C8.71522 9.72082 7.43083 9.62926 6.65102 7.98128C6.42167 7.43196 6.3758 6.79108 6.19231 6.24175C5.7336 4.7311 6.19231 2.9458 5.09141 1.16049Z" fill="#939393"/>
</svg>
