<svg width="16" height="22" viewBox="0 0 16 22" fill="none" xmlns="http://www.w3.org/2000/svg">
<path d="M5.98768 2.76265C7.2262 0.336465 7.50144 0.336465 9.4739 3.12887C9.61151 2.89998 9.70326 2.76265 9.795 2.57954C10.0702 1.664 10.0702 0.382242 11.3087 0.290688C12.6849 0.199134 13.1436 1.43512 13.6481 2.48799C13.7399 2.6711 13.8316 2.89998 13.8775 3.12887C14.8408 8.02702 15.1619 12.971 15.8041 17.8691C16.2169 20.7988 14.3362 22.2179 11.3546 21.8975C9.19866 21.6686 7.13447 21.7602 5.0244 21.8975C1.99692 22.1264 0.71254 20.7531 0.620798 17.7318C0.620798 16.9078 0.437308 15.9465 0.758405 15.2598C2.31802 11.735 1.72169 7.98125 2.04279 4.31908C2.08866 3.86131 2.08866 3.40353 2.27214 2.99154C2.68498 1.93866 2.91434 0.611128 4.33634 0.565351C5.52898 0.611128 5.52897 1.98444 5.98768 2.76265ZM4.42809 1.57245C2.77673 2.62532 2.68499 4.09019 2.68499 5.50928C2.73086 8.75946 2.73086 12.0554 1.67583 15.1683C1.4006 16.038 1.30885 16.9536 1.35472 17.8691C1.53821 20.1122 2.45564 20.982 4.74919 20.9362C6.81338 20.8904 8.78582 20.5242 10.8959 20.8446C14.1069 21.3024 15.1619 20.3411 14.8867 17.0909C14.5197 12.7878 13.3729 8.62213 13.2812 4.2733C13.2353 3.17465 12.8225 1.89289 11.4922 1.34356C10.5289 1.98444 10.5748 2.89998 10.4831 3.81553C10.3913 4.77685 10.3454 5.78395 10.162 6.74527C9.93261 7.88969 9.56563 9.17145 8.23537 9.26301C6.81337 9.40034 6.53816 8.02702 6.12532 6.97415C5.39138 5.32617 5.52899 3.40353 4.42809 1.57245Z" fill="#939393"/>
</svg>
