<svg width="10" height="33" viewBox="0 0 10 33" fill="none" xmlns="http://www.w3.org/2000/svg">
<path d="M9.74092 6.01178C9.28221 7.88864 9.51157 9.94862 8.68589 11.7797C8.3648 12.5121 8.31892 13.2446 8.31892 14.0228C8.31892 18.9667 7.95196 23.8649 8.73177 28.763C8.77764 28.9004 8.77763 29.0835 8.77763 29.2208C8.77763 30.2737 9.09873 31.6928 7.90608 32.059C6.52995 32.471 6.39235 30.823 5.97951 29.9532C4.74099 27.3439 4.0988 24.5058 3.68596 21.6676C2.95202 16.5863 1.3924 11.6424 0.658468 6.56111C0.429113 4.86736 0.566718 3.1736 1.89698 1.89184C3.04375 0.838964 4.32814 -0.0307993 6.02537 0.838966C8.08956 1.93762 10.062 3.12782 9.74092 6.01178ZM7.81435 11.5966C8.6859 9.67396 8.73177 7.61398 8.73177 5.59979C8.73177 3.72293 6.43821 1.43407 4.69511 1.47985C2.95201 1.5714 1.53001 3.35671 1.53001 5.55401C1.53001 6.14911 1.57588 6.74422 1.66762 7.3851C2.1722 11.0015 2.44744 11.2304 6.16299 11.0473C6.75931 11.0015 7.49325 10.6353 7.81435 11.5966C6.3006 12.1917 4.69511 12.1459 2.86027 12.0544C4.00705 18.4632 4.60337 24.7346 7.4015 30.5026C7.90608 28.8546 7.63086 27.2524 7.53912 25.6502C7.17215 20.9809 6.9428 16.2659 7.81435 11.5966Z" fill="#939393"/>
</svg>
