<svg width="12" height="32" viewBox="0 0 12 32" fill="none" xmlns="http://www.w3.org/2000/svg">
<path d="M11.3464 5.64537C11.2088 7.70534 10.7959 10.0857 9.97025 12.4204C9.37393 14.1141 9.09871 15.7621 9.05283 17.5474C8.96109 21.118 8.77761 24.6887 8.64 28.2593C8.64 28.717 8.59413 29.2206 8.41064 29.5868C8.08955 30.365 8.41065 31.6926 7.17213 31.7383C6.02536 31.7383 5.93361 30.5024 5.70426 29.6784C4.41987 25.238 3.18135 20.7518 2.90612 16.0826C2.81438 14.4804 2.40154 12.9239 1.80522 11.4591C1.16303 9.81109 0.887802 8.11734 0.474963 6.42358C-0.58007 2.21208 2.26394 0.976099 5.56665 0.609882C9.00697 0.197887 11.3005 2.30364 11.3464 5.64537ZM7.08039 30.5481C7.99781 28.7628 7.95193 27.2064 7.95193 25.65C7.90606 20.0194 8.1813 14.4346 9.92439 9.03288C10.2455 8.02578 10.2914 6.92713 10.3372 5.87426C10.429 2.62408 9.78677 2.16631 6.80516 3.44807C6.34645 3.63118 6.07122 4.04317 5.38315 3.72273C1.71347 1.98319 0.841934 2.21208 1.43826 6.97291C1.48413 7.20179 1.52999 7.43068 1.57586 7.65956C1.94283 10.5435 3.54832 13.0613 3.82354 15.991C4.0529 18.5545 4.46574 21.118 4.97032 23.6358C5.42903 25.8789 5.93361 28.1219 7.08039 30.5481Z" fill="#939393"/>
</svg>
