<svg width="17" height="25" viewBox="0 0 17 25" fill="none" xmlns="http://www.w3.org/2000/svg">
<path d="M8.00632 7.3647C8.41916 5.67094 8.83201 4.02296 9.29072 2.32921C9.56595 1.41367 9.88703 0.452348 11.1714 1.27634C11.4466 1.45944 11.676 1.50522 11.9971 1.36789C14.1989 0.72701 14.52 0.818565 15.0705 2.97009C15.8961 5.99138 16.1714 9.10423 15.8044 12.2171C15.6668 13.4531 15.7126 14.5975 16.2172 15.7877C16.997 17.6646 17.0888 19.633 16.8594 21.6014C16.5842 23.7987 15.2539 25.0347 13.0063 24.9431C10.5292 24.8516 8.0522 24.6227 5.52929 24.8973C2.77703 25.2178 1.12567 23.524 0.896315 20.7774C0.850444 20.2739 1.07981 18.6259 1.26329 18.1681C3.7862 12.2171 2.0431 9.92822 2.13484 5.25895C2.13484 4.02296 2.31832 2.83276 3.00638 1.77988C3.83206 0.498124 4.65774 0.40657 5.34581 1.77988C6.12562 3.33631 6.63019 5.03006 7.27238 6.63226C7.36413 6.90692 7.54762 7.13581 7.68523 7.41047C7.7311 7.41047 7.86871 7.41047 8.00632 7.3647ZM3.83206 1.68833C3.00638 3.93141 2.59355 5.89983 2.86878 7.9598C3.32749 11.21 3.37336 14.4602 2.13484 17.6188C1.67613 18.7632 1.72199 19.9992 1.81374 21.2352C1.90548 22.3338 2.41006 23.2951 3.4651 23.7987C4.70361 24.348 7.36413 23.9818 8.74026 23.0663C7.7311 22.1965 6.3091 23.8902 5.16233 22.6085C6.53846 21.8303 8.23568 22.1507 9.1531 20.5943C10.2999 22.2423 12.0888 21.9218 13.8319 22.1049C12.9145 23.7529 11.309 22.4254 10.1164 23.2951C11.8136 24.3022 13.3732 24.3022 14.7952 23.524C16.1714 22.7916 16.3548 21.2809 16.0796 19.9076C15.1622 15.6504 14.7035 11.3931 14.9328 7.04425C14.9787 6.22027 14.9328 5.3505 14.7035 4.57229C14.4283 3.61097 14.3824 2.46654 13.1439 1.91722C11.9971 3.01587 12.043 4.43496 11.6301 5.71672C11.0797 7.41047 11.0797 9.92822 9.01549 10.0655C6.76781 10.2487 6.76781 7.63936 6.03387 6.03716C5.39168 4.70962 5.48341 3.06164 3.83206 1.68833Z" fill="#939393"/>
</svg>
