<svg width="17" height="29" viewBox="0 0 17 29" fill="none" xmlns="http://www.w3.org/2000/svg">
<path d="M8.78641 17.5546C7.86899 19.523 7.50202 21.3999 7.31853 23.3683C7.18092 24.7416 7.04331 26.0691 6.76809 27.4424C6.63047 28.0833 6.40112 28.8615 5.57544 28.9073C4.74976 28.9531 4.42866 28.2207 4.10756 27.6255C2.7773 24.7416 2.3186 21.6745 2.13511 18.5617C1.95163 14.8079 2.36447 10.9627 0.942464 7.30049C0.483754 6.11029 0.667235 4.73698 1.12595 3.50099C1.85988 1.39524 3.32776 0.388146 5.52956 0.845918C7.91486 1.34947 10.1625 1.34946 12.502 0.800138C14.7955 0.250812 16.6304 1.6699 16.8597 4.00454C17.0432 6.06451 17.1349 8.12448 16.3093 10.0929C15.5753 11.8782 15.5295 13.7551 15.7129 15.6777C16.0799 19.2483 16.2634 22.8189 15.5753 26.3438C15.3918 27.1678 15.2542 28.1749 14.2909 28.3122C13.2359 28.4495 12.9607 27.4424 12.6854 26.6642C11.9974 24.65 11.3552 22.6358 10.6671 20.6216C10.346 19.5688 10.1167 18.5159 8.78641 17.5546ZM8.19008 3.36366C7.41027 1.53257 5.85066 1.62413 4.5204 1.66991C3.14427 1.76146 2.04337 2.58545 1.85988 4.09609C1.6764 5.83562 1.63053 7.57516 2.31859 9.26891C3.00666 11.0084 3.19015 12.7937 3.09841 14.6248C2.91492 18.1955 3.0984 21.7661 4.10756 25.2451C4.38279 26.2065 4.56628 27.2136 5.57544 27.8544C6.40112 26.9389 6.21763 25.9776 6.21763 25.1078C6.30937 23.0478 6.67635 21.0336 7.2268 19.0652C7.50202 18.1039 7.73137 16.9595 8.87814 16.7764C10.2543 16.5933 10.5754 17.9208 10.9423 18.8363C11.5387 20.2097 11.9056 21.7203 12.4102 23.1394C12.8689 24.4669 13.0983 25.886 14.0616 26.9847C15.0249 26.4811 14.8872 25.6114 14.9331 24.9247C14.979 23.0936 15.0249 21.2625 15.0249 19.4772C14.979 15.7693 14.612 12.0613 15.8505 8.39915C16.2634 7.20894 16.401 5.8814 16.2634 4.55386C16.0799 2.95166 15.2083 1.76146 13.557 1.62413C12.0432 1.4868 10.5295 1.85302 9.1075 2.81434C10.4378 4.37076 12.0433 1.94456 13.3735 3.40943C11.7222 4.05031 10.0249 5.33208 8.87814 4.96586C7.3644 4.50809 5.85066 4.37075 4.06169 4.09609C5.34608 2.677 6.76808 3.50099 8.19008 3.36366Z" fill="#939393"/>
</svg>
