<svg width="10" height="33" viewBox="0 0 10 33" fill="none" xmlns="http://www.w3.org/2000/svg">
<path d="M9.35562 25.9007C9.35562 26.5874 9.35562 26.7247 9.35562 26.9078C9.12627 28.51 10.1354 30.6157 8.48407 31.5771C6.64923 32.6299 4.30981 32.0348 2.19974 31.8517C1.19058 31.7602 0.869487 30.9362 0.915358 30.0206C1.0071 26.6331 0.548395 23.2456 1.92453 19.9039C2.84195 17.6608 2.33735 15.0973 2.65845 12.6711C3.11716 9.19204 3.75937 5.75875 4.44743 2.37124C4.58504 1.68459 4.63092 0.67749 5.59421 0.67749C6.51163 0.67749 6.69511 1.59303 6.97034 2.27969C7.19969 2.82902 7.38317 3.4699 7.38317 4.065C7.3373 8.50538 8.16297 12.8542 8.39233 17.2488C8.52994 20.3159 9.99782 23.2456 9.35562 25.9007ZM7.84188 21.0025C7.52079 17.7524 7.33729 14.5022 6.78684 11.2978C6.28226 8.18494 7.0162 4.93476 5.64007 1.95925C3.8511 8.09339 3.0713 14.2733 2.84195 20.5905C1.09885 23.5203 1.55755 26.7247 1.60342 29.8833C1.60342 30.2953 1.7869 30.7073 2.19974 30.7989C4.08045 31.2108 5.96117 31.2108 7.84188 30.7989C8.30059 30.7073 8.62169 30.2037 8.57582 29.746C8.52995 26.7705 9.35563 23.7949 7.84188 21.0025Z" fill="#939393"/>
</svg>
