<svg width="9" height="30" viewBox="0 0 9 30" fill="none" xmlns="http://www.w3.org/2000/svg">
<path d="M8.13584 5.05746C8.27345 7.71253 7.44778 10.5507 7.08081 13.3889C6.57623 17.6004 6.98906 21.8577 6.25512 26.0692C6.20925 26.2981 6.25514 26.5269 6.20926 26.7558C6.02578 27.9918 6.16339 29.8229 4.55791 29.7771C3.18177 29.7313 3.457 27.9003 3.22765 26.7558C2.12674 20.8963 2.6772 14.808 1.16345 8.94852C0.704743 7.16321 0.750612 5.19479 0.65887 3.31793C0.567128 1.94461 1.11758 0.983292 2.67719 0.800183C2.8148 0.800183 2.95242 0.754407 3.1359 0.70863C6.94319 0.0219731 8.18171 1.02907 8.13584 5.05746ZM2.53958 10.1387C3.04416 9.04007 4.00745 9.72673 4.74139 9.63517C5.75055 9.49784 6.80558 9.45207 6.94319 8.17031C7.12667 6.65966 7.35603 5.14901 7.4019 3.63837C7.49364 1.57839 5.93404 1.62417 4.55791 1.62417C3.18177 1.62417 1.66803 1.62417 1.7139 3.68414C1.7139 5.83567 1.80565 8.03298 2.53958 10.1387C3.31939 16.2729 3.31938 22.5443 4.87899 28.6327C5.93403 22.6359 5.70467 16.5933 6.53035 10.3676C4.879 10.6423 3.64049 10.7796 2.53958 10.1387Z" fill="#939393"/>
</svg>
