<svg width="12" height="30" viewBox="0 0 12 30" fill="none" xmlns="http://www.w3.org/2000/svg">
<path d="M0.612549 24.5486C0.796033 23.4499 0.79603 22.214 1.25474 21.2069C3.54829 16.0798 3.31894 10.5866 3.86939 5.18487C3.96114 4.17777 4.00701 3.21645 4.37398 2.30091C4.6492 1.5227 5.01616 0.607152 6.0712 0.790261C6.98862 0.927592 7.0345 1.84314 7.17211 2.62135C7.95192 7.10751 9.00694 11.5021 9.51152 16.034C9.64913 17.4989 10.062 18.8722 10.6583 20.1998C11.1629 21.39 11.3464 22.6717 11.3922 23.9535C11.4381 26.105 10.7042 27.753 8.63998 28.7143C6.25468 29.813 4.05287 29.5841 1.94281 28.0734C0.704288 27.2494 0.65842 25.9219 0.612549 24.5486ZM5.97946 1.88891C4.9703 2.39246 5.01617 3.03334 4.97029 3.62844C4.83268 5.27642 4.78681 6.97018 4.51158 8.61815C3.86939 12.8754 4.05288 17.2243 2.1263 21.2984C1.30062 23.038 1.34649 25.0521 2.1263 27.1579C4.23637 26.2424 6.25468 25.6472 8.36475 26.7001C9.74088 27.3868 10.1537 26.517 10.2455 25.3726C10.3831 23.4957 10.4289 21.6189 9.60327 19.7878C8.9152 18.2771 8.54823 16.6292 8.41062 14.9354C8.08952 10.5866 6.94275 6.37507 5.97946 1.88891Z" fill="#939393"/>
</svg>
