<svg width="11" height="32" viewBox="0 0 11 32" fill="none" xmlns="http://www.w3.org/2000/svg">
<path d="M0.0540189 25.9078C-0.0835941 23.4816 1.56776 21.1012 1.9806 18.4003C2.66867 13.6853 2.85215 8.92446 3.31086 4.16364C3.40261 3.24809 3.31086 2.33255 3.63196 1.46278C3.81544 0.959235 3.95306 0.364132 4.59525 0.318355C5.23745 0.272578 5.51267 0.821904 5.69615 1.27968C6.75119 3.66009 7.25577 6.17783 7.62274 8.74135C8.35667 13.6853 8.86125 18.675 10.2374 23.4816C10.4667 24.2598 10.6502 25.1296 10.6961 25.9536C10.8337 28.9291 8.21906 31.5384 5.23744 31.4468C2.25583 31.3553 -0.0377231 29.1122 0.0540189 25.9078ZM2.53106 20.8723C1.24667 22.566 0.879699 24.5802 0.879699 26.6402C0.833827 28.4713 1.56776 29.1122 3.26499 28.4255C4.73286 27.8304 5.87964 28.0593 7.25577 28.5629C9.04474 29.2037 9.64106 28.7917 9.82454 26.8233C10.008 24.7176 9.36583 22.7949 8.54016 20.9181C7.57686 14.4635 7.16403 7.87158 4.77873 1.64589C3.76957 8.05469 3.58609 14.5093 2.53106 20.8723Z" fill="#C0C0C0"/>
</svg>
