<svg width="10" height="32" viewBox="0 0 10 32" fill="none" xmlns="http://www.w3.org/2000/svg">
<path d="M9.89767 26.9993C9.89767 31.989 9.89767 31.989 5.17295 31.989C4.80598 31.989 4.39314 31.989 4.02618 31.989C1.59501 31.9433 1.22804 31.4855 1.04456 29.0135C0.815205 25.3514 1.31979 21.7807 1.96198 18.1643C2.78766 13.3577 2.69592 8.50537 3.33811 3.69877C3.47572 2.55434 3.38399 0.769031 4.80599 0.723254C6.31973 0.677477 6.09037 2.50856 6.3656 3.60721C7.7876 8.82581 7.69586 14.2733 8.61328 19.5834C9.02612 22.1927 10.127 24.6647 9.89767 26.9993ZM5.08121 1.95924C4.11792 3.19522 4.07205 4.4312 3.98031 5.71296C3.61334 9.78713 3.42986 13.9071 2.83353 17.9355C2.37482 21.0025 1.54914 24.0238 1.73263 27.1824C1.91611 30.8446 2.00785 31.0277 5.67754 30.9819C8.88851 30.9362 8.70503 30.9362 8.98025 27.8691C9.34722 23.978 7.51238 20.4532 7.32889 16.6537C7.23715 14.2275 6.96192 11.8013 6.59495 9.42091C6.18212 6.90317 5.58579 4.4312 5.08121 1.95924Z" fill="#939393"/>
</svg>
