<svg width="17" height="28" viewBox="0 0 17 28" fill="none" xmlns="http://www.w3.org/2000/svg">
<path d="M8.32059 17.7378C7.31143 18.7907 7.17382 20.0724 7.0362 21.3542C6.89859 22.7733 6.80685 24.2382 6.66924 25.6573C6.57749 26.3439 6.48575 27.1221 5.66007 27.2137C4.88027 27.3052 4.42156 26.6643 4.10046 26.0692C2.72433 23.6431 1.99039 20.988 1.89865 18.2414C1.76104 14.6707 2.03626 11.1459 0.660134 7.71261C0.293166 6.84285 0.430779 5.74419 0.47665 4.78287C0.614263 1.76158 2.54085 0.159386 5.47659 0.846043C7.3573 1.25804 9.19214 1.34959 11.1187 0.891816C14.2838 0.113605 16.348 1.71581 16.5315 4.96599C16.5774 5.69842 16.5774 6.52241 16.3021 7.20906C14.6967 11.6494 15.0636 16.3187 14.3756 20.8507C14.1003 22.8191 13.504 24.6959 12.5866 26.4355C12.2655 27.0763 11.8527 27.9461 10.8894 27.6257C10.1096 27.3968 10.1096 26.5728 10.0637 25.8861C9.83434 23.6888 9.55911 21.5373 9.28388 19.34C9.19214 18.8365 9.23801 18.1956 8.32059 17.7378ZM8.09124 2.76868C6.2564 1.94469 4.69678 1.16648 2.95369 1.99047C1.11884 2.90601 1.25646 4.7371 1.53168 6.20197C2.49497 10.8255 2.17388 15.5405 2.99956 20.164C3.22891 21.4915 3.64175 22.8191 4.10046 24.1008C4.37569 24.879 4.55917 25.8404 5.75182 26.1608C6.2564 23.9635 5.66007 21.7662 6.39401 19.752C6.85272 18.5618 6.80685 16.5476 8.50408 16.6849C10.1096 16.8223 10.0637 18.6991 10.2472 20.0267C10.5683 22.1782 10.7518 24.3297 11.027 26.5728C11.9903 26.2524 12.1738 25.6115 12.4031 24.9706C13.0912 23.1853 13.3664 21.3084 13.7334 19.4316C14.4673 15.4947 13.871 11.3748 15.4765 7.57528C15.8893 6.61396 15.66 5.3322 15.5682 4.18778C15.4306 2.81446 14.4673 1.99047 13.2288 1.71581C11.9444 1.44114 10.6141 1.57848 9.60498 2.81446C10.7518 3.45534 12.2655 2.31091 12.9994 3.95889C11.394 3.95889 10.0178 4.3251 8.59582 4.82865C7.58666 5.19487 5.9353 3.86733 4.42156 3.22645C5.66007 2.35669 6.71511 3.68422 8.09124 2.76868Z" fill="#939393"/>
</svg>
