<svg width="12" height="32" viewBox="0 0 12 32" fill="none" xmlns="http://www.w3.org/2000/svg">
<path d="M6.80524 0.226807C7.86027 0.684578 7.952 1.60012 7.99787 2.51566C8.36484 7.4596 8.77769 12.3578 9.32814 17.2559C9.51163 18.7666 9.78685 20.2772 10.3832 21.6505C10.9795 22.978 11.2547 24.3971 11.3923 25.8162C11.7593 29.4326 8.08962 32.3166 4.60342 31.0806C1.34658 29.9362 0.153941 28.4713 1.07136 24.4887C2.76859 17.3017 3.13555 9.88578 5.15388 2.79033C5.4291 1.82901 5.65846 0.776132 6.80524 0.226807ZM6.75936 1.50857C6.02543 2.10367 5.97955 2.97344 5.7502 3.75165C4.32819 8.69558 4.23646 13.9142 3.08968 18.9497C2.81446 20.1399 3.18142 20.7807 4.69517 20.5061C5.97956 20.2772 7.44743 19.8194 8.86943 21.4216C6.89698 21.3758 5.33736 21.2385 3.77775 21.6963C3.18142 21.8794 2.63097 21.8794 2.35574 22.5661C1.71355 24.1683 1.43832 25.8162 1.85116 27.4642C2.12639 28.6086 2.67684 29.3411 4.14471 28.6544C5.52084 28.0135 6.8511 27.4184 8.50246 28.4255C9.6951 29.158 10.6125 28.3798 10.7043 26.8691C10.7501 25.3127 10.5667 23.8478 9.87859 22.4287C9.14465 20.9181 8.64007 19.3159 8.54833 17.6221C8.2731 13.0902 7.30982 8.60402 7.4933 4.02631C7.40156 3.20232 7.53917 2.28678 6.75936 1.50857Z" fill="#939393"/>
</svg>
