<svg width="14" height="50" viewBox="0 0 14 50" fill="none" xmlns="http://www.w3.org/2000/svg">
<path d="M13.1429 39.2572C13.1429 40.3259 13.1429 40.5397 13.1429 40.8247C12.786 43.3183 14.3566 46.5957 11.7865 48.0919C8.93074 49.7306 5.28967 48.8044 2.00558 48.5194C0.434927 48.3769 -0.0648174 47.0944 0.00657596 45.6695C0.149363 40.3972 -0.564562 35.1249 1.57724 29.9238C3.00511 26.4327 2.21976 22.4429 2.71951 18.6668C3.43345 13.252 4.43297 7.90845 5.50387 2.63615C5.71805 1.56744 5.78945 0 7.28871 0C8.71657 0 9.00215 1.42495 9.43051 2.49365C9.78747 3.34862 10.073 4.34608 10.073 5.2723C10.0016 12.1833 11.2867 18.9518 11.6437 25.7915C11.8579 30.5651 14.1425 35.1249 13.1429 39.2572ZM10.787 31.6338C10.2872 26.5752 10.0016 21.5167 9.14492 16.5294C8.35959 11.6845 9.50188 6.62599 7.36008 1.99492C4.57574 11.5421 3.36207 21.1604 3.00511 30.9926C0.292158 35.5524 1.00608 40.5397 1.07748 45.4557C1.07748 46.097 1.36304 46.7382 2.00558 46.8807C4.93271 47.5219 7.85985 47.5219 10.787 46.8807C11.5009 46.7382 12.0007 45.9545 11.9293 45.242C11.8579 40.6109 13.143 35.9799 10.787 31.6338Z" fill="#DADADA"/>
</svg>
