<svg width="18" height="28" viewBox="0 0 18 28" fill="none" xmlns="http://www.w3.org/2000/svg">
<path d="M9.07995 17.5547C8.07079 18.8822 7.88731 20.164 7.79557 21.4458C7.70383 22.636 7.74968 23.872 7.65794 25.1079C7.61207 26.1608 7.7497 27.4883 6.41944 27.7172C5.2268 27.9003 4.85982 26.6644 4.49285 25.7946C3.30021 22.8191 2.52039 19.752 2.52039 16.5018C2.52039 13.9841 2.5204 11.5579 1.46536 9.13171C0.731428 7.43796 0.96078 5.51532 1.19013 3.73001C1.46536 1.67004 3.20846 0.296727 5.31853 0.754498C7.74969 1.30382 10.0891 1.39538 12.5203 0.754498C14.2634 0.296727 15.7771 1.3496 16.5111 3.04336C17.245 4.73711 17.1991 6.47664 16.6487 8.17039C15.6395 11.1917 15.456 14.2587 15.5019 17.3716C15.5478 19.9809 15.0432 22.4986 13.9423 24.8791C13.7129 25.3826 13.4836 25.8404 13.1625 26.2524C12.7955 26.7559 12.4285 27.351 11.7405 27.2137C10.8689 27.0764 10.7313 26.2981 10.7313 25.6115C10.7313 23.7804 10.4561 21.9951 10.135 20.2098C10.0891 19.34 9.99737 18.4245 9.07995 17.5547ZM8.346 2.72291C6.55703 1.85314 5.04329 1.07494 3.39194 2.08203C1.83232 2.99758 1.78646 4.554 1.8782 6.11042C1.96994 7.52951 2.24517 8.9486 2.79562 10.3219C3.20846 11.329 3.52955 12.3819 3.39194 13.4348C2.9791 16.9138 3.80478 20.2098 4.63046 23.5515C4.90569 24.6502 5.08916 25.8862 6.28181 26.6186C6.96987 25.703 6.69464 24.7417 6.74052 23.872C6.83226 21.9493 7.06162 20.0724 7.61208 18.2871C7.84143 17.5089 8.11667 16.5476 9.1717 16.5934C10.135 16.6392 10.5937 17.5089 10.7772 18.3329C11.1442 20.0267 11.557 21.7204 11.557 23.5057C11.557 24.3755 11.3276 25.291 12.245 26.115C13.7588 24.4213 14.1258 22.4529 14.4927 20.4387C15.3184 15.8152 14.6762 11.0544 16.2817 6.52241C16.8322 4.96599 16.4652 3.08913 14.7679 2.12781C12.979 1.12072 11.3735 1.9447 9.67627 2.76869C10.8689 3.86734 12.2909 2.12781 13.4836 3.45535C11.8781 4.00467 10.1809 5.05755 9.1717 4.82866C7.79557 4.50822 6.28182 4.18778 4.72221 3.77579C5.6855 2.44825 7.01574 3.59268 8.346 2.72291Z" fill="#939393"/>
</svg>
