<svg width="11" height="31" viewBox="0 0 11 31" fill="none" xmlns="http://www.w3.org/2000/svg">
<path d="M10.4758 6.24067C10.7511 8.80419 8.82449 11.3677 8.45752 14.3432C7.95294 18.097 7.31074 21.8507 6.62268 25.5586C6.39332 26.7488 6.07223 27.939 5.61352 29.0377C5.29242 29.8617 5.0172 31.0061 3.82455 30.7314C2.81539 30.5026 2.90713 29.4497 2.86126 28.6257C2.81539 27.1151 2.76951 25.6044 2.81538 24.048C2.99887 18.9209 2.6319 13.8855 0.888802 9.03308C0.292479 7.33933 0.475965 5.55402 0.567707 3.81449C0.659449 2.02918 3.91629 0.152318 6.1181 0.472758C8.77862 0.884752 10.6135 3.08205 10.4758 6.24067ZM7.95294 12.5579C6.16397 12.2375 4.46675 13.2904 3.13649 11.7797C4.00804 11.3219 4.78784 11.5966 5.52178 11.5508C8.04468 11.4135 8.68688 10.9099 9.2832 8.43798C9.46668 7.70554 9.60429 6.97311 9.69603 6.1949C9.87952 3.53983 9.19146 2.76162 6.53094 2.53273C1.76035 2.12074 0.521837 3.26516 1.62274 7.84287C2.76952 12.5579 3.91629 17.2272 3.54932 22.1711C3.41171 23.6818 3.50345 25.1924 3.54932 26.7031C3.59519 27.7102 3.64107 28.7173 4.375 29.587C6.53094 24.0938 6.66855 18.2343 7.95294 12.5579Z" fill="#939393"/>
</svg>
