<svg width="26" height="43" viewBox="0 0 26 43" fill="none" xmlns="http://www.w3.org/2000/svg">
<path d="M12.628 26.3147C11.0574 28.3809 10.7718 30.3758 10.629 32.3707C10.4862 34.2232 10.5576 36.1468 10.4148 38.0705C10.3434 39.7092 10.5576 41.7754 8.48722 42.1316C6.63099 42.4166 6.05984 40.4929 5.48869 39.1392C3.63246 34.5081 2.41876 29.7346 2.41876 24.676C2.41876 20.7574 2.41877 16.9813 0.776726 13.2052C-0.365567 10.5691 -0.00860497 7.57669 0.348362 4.79804C0.776722 1.59192 3.48967 -0.5455 6.77376 0.166972C10.5576 1.02194 14.1987 1.16443 17.9825 0.166972C20.6955 -0.5455 23.0515 1.09319 24.1938 3.72934C25.3361 6.36548 25.2647 9.07288 24.4079 11.709C22.8373 16.4113 22.5517 21.1849 22.6231 26.0297C22.6945 30.0908 21.9091 34.0094 20.1957 37.7143C19.8387 38.498 19.4818 39.2105 18.982 39.8517C18.4109 40.6354 17.8397 41.5616 16.7688 41.3479C15.4124 41.1341 15.1982 39.9229 15.1982 38.8542C15.1982 36.0043 14.7698 33.2257 14.2701 30.4471C14.1987 29.0934 14.0559 27.6684 12.628 26.3147ZM11.4857 3.2306C8.70137 1.8769 6.34539 0.665699 3.77523 2.23314C1.34786 3.65808 1.27648 6.08049 1.41926 8.5029C1.56205 10.7116 1.99041 12.9202 2.84713 15.0576C3.48967 16.6251 3.98941 18.2638 3.77523 19.9025C3.13269 25.3173 4.41778 30.447 5.70286 35.6481C6.13122 37.358 6.41678 39.2817 8.27301 40.4217C9.34391 38.9967 8.91555 37.5005 8.98694 36.1468C9.12973 33.1545 9.48671 30.2333 10.3434 27.4547C10.7004 26.2435 11.1288 24.7473 12.7708 24.8185C14.2701 24.8898 14.984 26.2435 15.2696 27.5259C15.8407 30.1621 16.4832 32.7982 16.4832 35.5769C16.4832 36.9306 16.1263 38.3555 17.5541 39.6379C19.9101 37.0018 20.4813 33.9382 21.0524 30.8033C22.3375 23.6073 21.338 16.1976 23.8368 9.14412C24.6935 6.72171 24.1223 3.80058 21.4808 2.30439C18.6964 0.73695 16.1977 2.0194 13.5561 3.30185C15.4124 5.01178 17.6255 2.30439 19.4818 4.37056C16.983 5.22552 14.3415 6.86421 12.7708 6.50797C10.629 6.00924 8.27303 5.51051 5.84566 4.86928C7.34492 2.80311 9.4153 4.58429 11.4857 3.2306Z" fill="#DADADA"/>
</svg>
