<svg width="18" height="27" viewBox="0 0 18 27" fill="none" xmlns="http://www.w3.org/2000/svg">
<path d="M8.86835 17.2341C7.90506 19.1567 8.08855 21.1251 7.81332 23.0478C7.62984 24.238 7.95092 25.886 6.52891 26.1606C4.9693 26.4353 4.60235 24.7415 4.0519 23.5971C2.95099 21.3083 2.53816 18.7905 2.53816 16.3185C2.53816 13.6177 2.12531 11.0542 1.29964 8.49065C0.795055 6.98001 0.565683 5.3778 1.02439 3.7756C1.71246 1.39519 3.45557 0.204987 5.88674 0.80009C8.08855 1.34942 10.1986 1.25786 12.4463 0.80009C15.2903 0.204987 17.2169 1.76141 17.4003 4.59959C17.4462 5.51514 17.6297 6.52223 17.3086 7.30044C15.4738 11.6493 16.4371 16.3185 15.6114 20.7589C15.3362 22.2696 14.9233 23.7344 14.3729 25.1078C14.1435 25.7029 13.7766 26.2522 13.0885 26.2064C12.4004 26.1606 12.0334 25.5655 11.8958 24.9704C11.4371 23.1393 11.0702 21.2625 10.6114 19.4314C10.3821 18.699 10.3362 17.6919 8.86835 17.2341ZM8.22615 2.72273C6.80415 1.80719 5.38214 1.25787 3.77665 1.89875C2.21704 2.53963 1.71246 3.82138 1.80421 5.3778C1.85008 6.52223 1.85008 7.66666 2.26292 8.71954C3.04272 10.7337 3.27208 12.7937 3.27208 14.9452C3.27208 17.7834 3.68492 20.53 4.87757 23.1393C5.19867 23.8718 5.42803 24.7415 6.43719 25.0162C7.17113 24.1007 7.12525 23.0478 7.17112 21.9949C7.21699 20.8505 7.17111 19.7061 7.53808 18.6074C7.81331 17.6003 7.95093 16.2728 9.23532 16.1812C10.6573 16.0897 10.9784 17.463 11.2995 18.5616C11.8041 20.3012 12.0793 22.1322 12.4921 23.8718C12.5839 24.3753 12.5839 24.9704 13.4555 24.9704C14.4646 23.2767 14.8775 21.354 15.0609 19.3856C15.382 15.1741 15.0609 10.9168 16.7123 6.88845C16.7582 6.7969 16.7582 6.75112 16.7582 6.65957C17.0334 4.87426 16.9875 3.13473 15.1985 1.9903C13.8683 1.16631 11.3913 1.62408 9.87752 2.86006C10.8867 3.7756 12.3087 2.12763 13.4555 3.22628C10.5656 4.96581 7.85919 4.73693 4.96932 3.72983C5.79499 2.63118 7.21699 3.72983 8.22615 2.72273Z" fill="#939393"/>
</svg>
