<svg width="17" height="29" viewBox="0 0 17 29" fill="none" xmlns="http://www.w3.org/2000/svg">
<path d="M8.52216 17.7834C7.00842 18.7905 6.77906 20.4385 6.27448 21.9034C5.72403 23.4598 5.31119 25.1078 4.71486 26.6642C4.43964 27.3966 4.21028 28.4495 3.10938 28.2664C2.10022 28.0833 2.05435 27.0762 1.87086 26.298C1.22867 23.5971 1.09106 20.8047 1.54977 18.1496C2.10022 14.7164 1.68738 11.512 0.769957 8.26178C0.311247 6.65958 0.0818924 5.0116 0.724087 3.36362C1.50389 1.34943 3.06351 0.296552 5.17357 0.800101C7.37538 1.34943 9.48545 1.34943 11.6873 0.800101C13.9808 0.250775 15.4946 1.25787 16.3202 3.4094C16.8707 4.87427 16.9166 6.43069 16.412 7.89556C15.4487 10.688 15.3569 13.5261 15.4028 16.4101C15.4487 19.9807 15.0817 23.5513 13.7515 26.8931C13.3845 27.7628 13.1551 29.0446 11.9166 28.9073C10.6781 28.7699 10.7698 27.4882 10.6322 26.5269C10.3111 24.2838 9.99003 22.0407 9.62306 19.7976C9.48545 19.0652 9.25609 18.3785 8.52216 17.7834ZM3.29286 26.9846C4.07267 26.7557 4.0268 26.0691 4.25615 25.5198C5.03596 23.2309 5.81577 20.8963 6.64145 18.6532C6.96255 17.8292 7.32951 16.7763 8.43042 16.7763C9.62306 16.7763 9.94416 17.9665 10.2194 18.8821C10.5405 19.7976 10.5864 20.8047 10.8157 21.766C11.3203 23.7345 10.9992 25.9318 12.1001 27.9917C13.2469 26.4811 13.5221 24.8789 13.8432 23.3682C15.0358 17.7376 13.9349 11.8782 15.678 6.29336C15.7698 5.92714 15.7239 5.51515 15.7239 5.14893C15.5863 2.35652 14.3019 1.25787 11.5496 1.85298C9.48545 2.31075 7.55887 2.44808 5.49467 1.85298C3.01764 1.16632 1.36628 2.49386 1.1828 5.10316C1.04518 6.79691 1.59564 8.39911 2.05435 10.0013C2.6048 11.9239 2.83415 13.8008 2.65067 15.815C2.37544 18.699 2.32957 21.5829 2.55893 24.4669C2.55893 25.3824 2.42131 26.3437 3.29286 26.9846Z" fill="#939393"/>
</svg>
