<svg width="17" height="27" viewBox="0 0 17 27" fill="none" xmlns="http://www.w3.org/2000/svg">
<path d="M8.11911 17.2801C6.97233 18.1956 6.78885 19.4316 6.51362 20.7133C6.19253 22.2698 6.10078 23.872 5.45859 25.3368C5.22923 25.8404 4.99988 26.3439 4.35769 26.3439C3.76136 26.3439 3.44027 25.8862 3.21091 25.3826C2.01826 22.7275 1.46781 19.8894 1.37607 17.0054C1.23846 13.9841 1.42194 10.9628 0.275166 8.03308C-0.0918024 7.16331 -6.03506e-05 6.06466 -6.03506e-05 5.10334C0.0916817 1.76161 2.20175 0.113635 5.45859 0.846069C7.29343 1.25806 9.03653 1.44117 10.8714 0.891842C14.4952 -0.20681 17.1557 2.08205 16.4676 5.97311C15.7337 10.4593 14.6787 14.8081 14.5869 19.3858C14.541 21.3085 13.7154 23.2311 12.6603 24.9248C12.2016 25.6115 11.7888 26.527 10.7338 26.2066C9.86221 25.9319 9.77046 25.108 9.72459 24.3297C9.58698 22.4529 9.67872 20.5302 9.12827 18.6992C8.99066 18.2414 8.94479 17.6921 8.11911 17.2801ZM7.84388 2.81449C6.92646 1.94472 5.9173 1.94472 4.95401 1.76161C2.52285 1.30384 1.14671 2.44827 1.0091 4.87446C0.963231 6.56821 1.0091 8.21619 1.60542 9.81839C2.01826 10.9628 2.47697 12.153 2.24762 13.389C1.69717 16.7307 2.56872 19.8894 3.21091 23.048C3.34852 23.8262 3.39439 24.7417 4.44943 25.108C5.50446 23.5515 5.18336 21.7204 5.77969 20.1182C6.33014 18.6534 6.14666 16.1814 8.30259 16.3645C10.1833 16.5019 9.90808 18.8365 10.2292 20.3471C10.5503 21.9493 10.642 23.5515 10.8714 25.1995C12.0181 24.9706 12.2475 24.1466 12.5227 23.5058C13.486 21.1711 14.1741 18.7449 14.1741 16.2272C14.1282 13.7094 14.22 11.2375 15.1374 8.81129C15.642 7.52953 15.642 6.11044 15.5961 4.73713C15.5043 3.31803 14.9998 2.21938 13.486 1.85316C11.8805 1.44117 10.5503 1.89894 8.99066 2.76871C10.3209 3.63847 11.697 2.72293 12.6145 3.95892C9.63285 4.7829 6.83472 5.14912 4.12833 3.36381C5.32098 2.17361 6.60536 3.82158 7.84388 2.81449Z" fill="#939393"/>
</svg>
