<svg width="17" height="25" viewBox="0 0 17 25" fill="none" xmlns="http://www.w3.org/2000/svg">
<path d="M9.92645 4.8084C10.1558 3.84709 10.2475 2.83999 10.6145 1.97022C11.165 0.596908 12.0824 0.505354 12.9998 1.74134C13.8255 2.88577 14.1925 4.2133 14.3759 5.58662C14.8805 9.79811 15.0181 14.0096 16.0732 18.1753C16.9906 22.1579 14.697 24.4468 10.5686 23.9433C8.96316 23.7601 7.44942 23.7144 5.84393 23.9433C1.99077 24.4926 0.477023 23.0735 0.431152 19.1824C0.431152 17.6718 0.568765 16.1611 1.11922 14.6963C1.71554 13.1398 1.85315 11.4461 1.80728 9.75234C1.76141 7.18882 2.58709 4.80841 3.82561 2.6111C4.4678 1.51245 5.20174 0.4138 6.85309 0.73424C8.55032 1.05468 9.33013 2.06178 9.33013 3.75553C9.33013 4.12175 9.46774 4.48797 9.51361 4.8084C9.69709 4.8084 9.83471 4.8084 9.92645 4.8084ZM6.57787 1.51245C4.51367 2.47377 3.96322 3.93864 3.50451 5.44929C2.12838 9.88967 2.17425 14.5589 1.25683 19.0909C0.660507 21.8833 2.22012 23.165 5.15587 22.9362C6.99071 22.7988 8.7338 22.5699 10.6145 22.8446C14.3301 23.3939 15.431 22.2037 15.2016 18.4042C15.1557 17.9464 15.2016 17.4887 15.064 17.0309C13.9631 13.9181 13.7337 10.6679 13.7337 7.37193C13.7337 6.31905 13.5044 5.26618 13.2292 4.2133C12.9998 3.34354 12.8163 2.29066 11.5778 1.92445C10.9815 4.12175 10.8439 6.27327 9.97232 8.19592C9.65122 8.97413 9.10077 9.75234 8.09161 9.61501C7.17419 9.47767 7.08245 8.60791 6.89896 7.87547C6.30264 5.95283 6.44025 3.93864 6.57787 1.51245Z" fill="#939393"/>
</svg>
