<svg width="17" height="24" viewBox="0 0 17 24" fill="none" xmlns="http://www.w3.org/2000/svg">
<path d="M6.93309 4.21335C7.02483 3.66403 7.07068 3.25203 7.11655 2.88582C7.34591 1.37517 8.53856 1.00896 9.7312 0.688516C10.878 0.368076 11.6119 1.10051 12.2083 1.9245C13.722 4.03025 14.2725 6.45644 14.5935 8.97418C14.9146 11.6293 15.0981 14.2385 15.8779 16.8021C16.3366 18.2669 16.4743 19.7776 15.9697 21.2882C15.3734 22.982 14.2724 24.0806 12.4376 23.9433C9.73122 23.7602 6.97896 23.7144 4.27257 23.9433C2.11664 24.0806 1.10746 23.0735 0.557004 20.9678C0.281778 19.9149 0.0983026 18.8163 0.465271 17.8092C1.70379 14.2385 1.5203 10.4848 2.02488 6.82265C2.20837 5.49511 2.48359 4.1218 2.89643 2.84004C3.17165 1.9245 3.67624 0.871624 4.86889 0.917401C5.92392 0.963178 5.87804 2.10761 6.19913 2.84004C6.33675 3.25203 6.24502 3.80136 6.93309 4.21335ZM4.73128 2.01605C3.63038 2.38227 3.53862 3.29781 3.35514 4.07602C2.20836 8.9284 2.75881 14.0554 1.24507 18.862C1.1992 18.9994 1.24507 19.1825 1.24507 19.3198C1.24507 22.2495 2.1625 23.1193 5.09825 23.0278C6.84134 22.982 8.49269 22.57 10.2817 22.8904C14.2266 23.5771 15.6486 22.1122 15.2357 18.1296C15.1899 17.6261 15.0522 17.0767 14.9146 16.5732C14.2724 14.559 13.9055 12.499 13.8596 10.3475C13.8137 8.15019 13.355 5.95289 12.3459 3.98447C11.933 3.1147 11.5202 2.19916 10.3734 2.01605C9.63947 2.88582 10.0064 3.84714 10.0064 4.7169C9.96058 5.99866 10.0064 7.28042 9.54774 8.56218C9.31838 9.15729 9.04314 9.70661 8.35507 9.79817C7.66701 9.88972 7.20829 9.43195 6.8872 8.88262C6.15326 7.69242 5.7863 6.36488 5.69456 4.99157C5.60282 3.84714 5.46522 2.84004 4.73128 2.01605Z" fill="#939393"/>
</svg>
