<svg width="8" height="30" viewBox="0 0 8 30" fill="none" xmlns="http://www.w3.org/2000/svg">
<path d="M7.74151 4.92014C7.55802 6.65967 7.51215 8.71964 6.77821 10.6423C6.22776 12.1072 6.54886 13.6636 6.36538 15.1742C5.95254 18.6533 5.40209 22.0866 5.44796 25.5656C5.44796 26.0692 5.35622 26.6185 5.2186 27.1221C4.94338 28.1749 5.08098 29.8229 3.65898 29.7771C2.32872 29.7313 2.32873 28.0376 2.23699 26.9847C1.82415 22.2239 1.54892 17.4631 1.27369 12.7023C1.13608 9.81829 0.0810409 7.07167 0.264525 4.14193C0.448009 1.16642 0.998458 0.479761 4.11769 0.525538C7.0993 0.571315 7.74151 1.21219 7.74151 4.14193C7.74151 4.32504 7.74151 4.46237 7.74151 4.92014ZM2.14524 10.5965C2.42047 16.6391 2.46634 22.6817 3.38376 28.6327C3.65899 28.6327 3.88833 28.6327 4.16356 28.6785C4.75988 22.7275 5.3562 16.7306 5.95253 10.6423C4.34704 10.5965 3.29201 10.5965 2.14524 10.5965ZM6.73234 5.51524C6.77821 1.94463 5.17273 0.388201 2.46634 1.80729C0.172791 2.9975 1.64065 5.33214 1.36543 7.16322C1.18194 8.30765 1.59479 9.17741 2.92505 9.49785C5.5397 10.093 6.59472 9.31475 6.68647 6.65967C6.73234 6.29346 6.73234 5.88146 6.73234 5.51524Z" fill="#939393"/>
</svg>
