<svg width="8" height="31" viewBox="0 0 8 31" fill="none" xmlns="http://www.w3.org/2000/svg">
<path d="M1.30133 21.5372C1.62243 15.9066 0.200424 9.95554 0.383908 3.95873C0.429779 2.8143 -0.074799 1.39521 1.57656 0.891657C3.45727 0.296554 5.38385 0.342334 7.08108 1.39521C7.86089 1.89876 7.67739 2.86008 7.63152 3.68407C7.58565 6.79691 7.12695 9.86398 6.5765 12.931C5.65907 18.0123 5.10862 23.1394 3.82423 28.1291C3.73249 28.4953 3.68662 28.8615 3.59488 29.2277C3.45727 29.7313 3.27378 30.3264 2.58572 30.2348C2.08114 30.189 1.85178 29.7313 1.71416 29.2735C1.20958 28.0375 1.3472 26.71 1.3472 25.4282C1.25546 24.3296 1.30133 23.1394 1.30133 21.5372ZM2.53984 28.7699C3.96185 24.1922 4.74166 19.4772 5.33798 14.7621C5.79669 11.1457 6.98933 7.66668 6.75998 3.95873C6.71411 3.2263 6.89759 2.31075 6.07191 1.94453C4.69578 1.30365 3.22791 1.34943 1.85178 1.89876C0.659133 2.35653 1.0261 3.59251 1.0261 4.50806C1.11784 9.03999 1.85178 13.5719 2.12701 18.1039C2.35636 21.6745 2.03526 25.1993 2.53984 28.7699Z" fill="#939393"/>
</svg>
