<svg width="11" height="33" viewBox="0 0 11 33" fill="none" xmlns="http://www.w3.org/2000/svg">
<path d="M1.66867 28.8544C2.08151 26.7944 1.98976 24.3224 2.26499 21.942C2.7237 17.9594 2.31086 14.0684 1.34757 10.2231C1.07234 9.21598 0.888862 8.11732 0.79712 7.06445C0.476023 3.21917 1.25583 2.53251 4.74203 0.747203C6.39339 -0.122563 8.77868 1.29653 9.65023 3.40228C10.2007 4.77559 10.2924 6.28624 9.83371 7.65955C7.953 13.6106 7.54016 19.8821 5.8888 25.8789C5.43009 27.4811 4.87964 29.0833 4.23745 30.5939C3.96222 31.2348 3.687 32.2419 2.76957 32.1045C1.71454 31.9672 1.80628 30.9143 1.71454 30.0904C1.6228 29.8157 1.66867 29.4953 1.66867 28.8544ZM2.86132 30.5481C4.05396 29.4953 4.32919 28.0762 4.69616 26.7486C6.531 20.6603 6.89796 14.2057 8.82455 8.11732C9.14564 7.156 9.00803 6.01158 8.96216 4.9587C8.87042 3.21917 7.40254 1.61697 5.93467 1.47964C4.65028 1.38808 1.94389 3.31072 1.80628 4.5467C1.6228 6.51512 1.3017 8.71243 2.44848 10.3146C3.32003 11.5048 5.24661 11.0471 6.76035 11.0013C6.94383 11.0013 7.17319 11.0928 7.58603 11.2302C6.16403 12.7408 4.4668 11.7337 2.76957 12.0542C3.77874 18.2341 2.81544 24.3682 2.86132 30.5481Z" fill="#939393"/>
</svg>
