<svg width="9" height="31" viewBox="0 0 9 31" fill="none" xmlns="http://www.w3.org/2000/svg">
<path d="M0.998321 5.51529C0.998321 5.19485 0.95245 4.92018 0.998321 4.59974C1.18181 3.40954 0.401998 1.80733 1.91574 1.12068C3.70471 0.296688 5.6313 0.296688 7.46614 1.12068C8.4753 1.57845 8.33769 2.58555 8.42943 3.50109C8.65879 6.56816 7.87898 9.54367 7.51201 12.565C6.91569 17.3258 7.23677 22.1324 7.09916 26.8932C7.05329 28.1292 7.55787 30.0061 5.95238 30.1434C4.53038 30.2807 4.62213 28.3581 4.43865 27.2594C3.29187 21.0795 2.1451 14.8538 1.09007 8.67391C0.906585 7.62103 1.0442 6.56816 1.0442 5.46951C1.0442 5.51528 1.04419 5.51529 0.998321 5.51529ZM5.90652 28.9532C6.54872 28.2665 6.50284 27.4883 6.50284 26.7559C6.50284 24.5586 6.64045 22.3155 6.45697 20.164C6.04413 14.808 7.37439 9.58945 7.42026 4.2793C7.42026 1.94467 7.05329 1.57845 4.80561 1.53268C2.46619 1.4869 2.05336 1.94467 1.96162 4.2793C1.77813 9.13168 3.10838 13.7552 3.65883 18.4702C4.11754 22.0866 4.9891 25.5199 5.90652 28.9532Z" fill="#939393"/>
</svg>
