<svg width="26" height="38" viewBox="0 0 26 38" fill="none" xmlns="http://www.w3.org/2000/svg">
<path d="M11.0752 10.2423C11.7177 7.6061 12.3603 5.0412 13.0742 2.40506C13.5026 0.980111 14.0023 -0.516081 16.0013 0.766369C16.4297 1.05136 16.7867 1.1226 17.2864 0.908863C20.7133 -0.0885984 21.2131 0.0538963 22.0698 3.40252C23.3549 8.10484 23.7832 12.9496 23.2121 17.7945C22.9979 19.7181 23.0693 21.4993 23.8546 23.3517C25.0683 26.2729 25.2111 29.3365 24.8541 32.4001C24.4258 35.82 22.3554 37.7437 18.8571 37.6012C15.0018 37.4587 11.1466 37.1025 7.21997 37.53C2.93637 38.0287 0.366203 35.3925 0.0092365 31.1177C-0.0621569 30.334 0.294823 27.7691 0.580396 27.0566C4.50703 17.7945 1.79408 14.2321 1.93687 6.96488C1.93687 5.0412 2.22243 3.18877 3.29334 1.55009C4.57842 -0.444835 5.8635 -0.58733 6.9344 1.55009C8.14809 3.97249 8.9334 6.60864 9.93291 9.1023C10.0757 9.52978 10.3613 9.88602 10.5755 10.3135C10.6469 10.3135 10.861 10.3135 11.0752 10.2423ZM4.57841 1.40759C3.29333 4.89871 2.6508 7.96234 3.07916 11.1685C3.7931 16.227 3.86449 21.2856 1.93687 26.2016C1.22293 27.9828 1.29432 29.9065 1.4371 31.8302C1.57989 33.5401 2.36522 35.0363 4.00727 35.82C5.93489 36.675 10.0757 36.105 12.2175 34.6801C10.6469 33.3264 8.43367 35.9625 6.64883 33.9676C8.79063 32.7564 11.4322 33.2551 12.86 30.8327C14.6449 33.3976 17.4292 32.8989 20.1422 33.1839C18.7143 35.7488 16.2155 33.6826 14.3593 35.0363C17.0009 36.6037 19.4282 36.6037 21.6414 35.3925C23.7832 34.2526 24.0688 31.9014 23.6404 29.764C22.2126 23.138 21.4986 16.512 21.8556 9.74352C21.927 8.46107 21.8556 7.10737 21.4986 5.89617C21.0703 4.39998 20.9989 2.6188 19.0713 1.76383C17.2864 3.47376 17.3578 5.68243 16.7153 7.67735C15.8586 10.3135 15.8586 14.2321 12.6459 14.4458C9.14759 14.7308 9.14759 10.6697 8.0053 8.17608C7.00579 6.10991 7.14857 3.54501 4.57841 1.40759Z" fill="#DADADA"/>
</svg>
