<svg width="11" height="30" viewBox="0 0 11 30" fill="none" xmlns="http://www.w3.org/2000/svg">
<path d="M10.7879 24.8232C10.9255 28.1191 8.90714 29.2635 5.51269 29.3551C2.30172 29.4924 0.191653 27.2951 0.283395 24.0907C0.329266 22.4428 0.512747 20.7948 1.15494 19.1926C2.1641 16.5833 2.20997 13.6993 2.76043 10.9527C3.31088 8.1145 3.86134 5.3221 4.45766 2.48392C4.59527 1.79726 4.59527 0.790162 5.60443 0.744385C6.6136 0.744385 6.88882 1.7057 7.16405 2.48392C7.89798 4.54389 7.66863 6.69541 7.89798 8.80116C8.31082 12.9211 8.58605 17.0868 10.1457 21.0237C10.5585 22.2139 10.7879 23.5414 10.7879 24.8232ZM5.9714 2.07192C5.78791 2.07192 5.60443 2.07192 5.37508 2.02614C4.73289 5.27632 3.99894 8.48072 3.44849 11.7309C2.94391 14.7064 2.71456 17.7277 1.61365 20.6117C0.833844 22.6716 0.787978 24.8689 1.93475 27.1578C4.45766 26.0591 6.93469 25.9218 9.27411 27.112C10.0539 25.9218 9.96217 25.0063 9.87043 23.9992C9.68695 21.6645 8.21908 19.6961 7.98973 17.4988C7.57689 13.7451 6.65946 10.0371 6.88882 6.19186C6.98056 4.77277 6.61359 3.35368 5.9714 2.07192Z" fill="#C0C0C0"/>
</svg>
